<?xml version="1.0" encoding="UTF-8" ?>
<!DOCTYPE svg PUBLIC "-//W3C//DTD SVG 1.1//EN" "http://www.w3.org/Graphics/SVG/1.1/DTD/svg11.dtd">
<svg width="424pt" height="424pt" viewBox="0 0 424 424" version="1.1" xmlns="http://www.w3.org/2000/svg">
<g id="F181617ff">
<path fill="#181617" opacity="1.00" d=" M 0.00 0.00 L 424.00 0.00 L 424.00 424.00 L 0.00 424.00 L 0.00 0.00 M 249.21 2.47 C 250.36 3.91 251.49 5.36 252.60 6.83 C 254.58 5.67 256.40 4.25 258.05 2.65 C 255.10 2.66 252.15 2.64 249.21 2.47 M 18.37 6.72 C 27.78 19.01 36.96 31.49 46.46 43.71 C 53.67 38.11 61.14 32.85 68.24 27.11 C 66.20 24.53 64.19 21.92 62.15 19.32 C 58.13 22.24 54.26 25.38 50.20 28.25 C 48.29 25.95 46.45 23.58 44.74 21.12 C 47.81 18.69 50.95 16.34 54.16 14.10 C 52.23 11.38 50.22 8.70 48.26 6.00 C 44.94 8.24 41.92 10.90 38.54 13.06 C 36.95 10.98 35.46 8.81 34.13 6.56 C 35.84 5.47 37.43 4.23 38.87 2.81 C 34.26 2.62 29.63 2.60 25.01 2.74 C 22.24 2.78 20.42 5.21 18.37 6.72 M 54.25 2.75 C 57.10 7.41 60.59 11.66 64.28 15.67 C 67.34 18.66 71.44 21.94 76.02 20.75 C 81.64 19.27 86.72 15.09 88.30 9.36 C 91.38 10.79 93.76 7.98 96.18 6.51 C 95.38 5.29 94.59 4.07 93.80 2.84 C 88.71 2.54 83.61 2.77 78.51 2.68 C 78.95 4.08 79.89 5.40 79.85 6.92 C 78.97 8.57 77.04 9.87 75.18 8.88 C 73.12 7.18 71.84 4.76 69.96 2.90 C 64.75 2.40 59.49 2.83 54.25 2.75 M 125.95 4.16 C 120.95 7.94 116.12 11.96 110.86 15.40 C 120.14 27.97 129.56 40.44 139.05 52.85 C 146.25 47.27 153.55 41.85 160.81 36.35 C 158.83 33.61 156.81 30.90 154.75 28.22 C 150.84 31.33 146.84 34.33 142.85 37.32 C 140.93 34.99 139.06 32.63 137.19 30.26 C 140.37 27.81 143.67 25.53 146.75 22.96 C 144.77 20.24 142.73 17.56 140.57 14.97 C 137.58 17.55 134.43 19.91 131.19 22.15 C 129.52 20.06 127.86 17.93 126.86 15.43 C 130.69 12.96 134.15 9.99 137.94 7.45 C 136.95 5.94 136.07 4.33 134.77 3.07 C 131.91 2.28 128.35 2.11 125.95 4.16 M 141.76 2.74 C 144.80 10.28 150.02 16.65 155.18 22.83 C 158.49 26.48 162.72 30.69 168.10 29.93 C 173.88 28.50 179.08 24.28 181.03 18.55 C 181.72 18.65 183.10 18.86 183.80 18.96 C 185.44 17.79 187.10 16.64 188.78 15.51 C 185.99 11.14 182.52 7.28 179.67 2.95 C 173.40 2.60 167.06 2.41 160.81 3.09 C 162.09 6.08 164.26 8.52 166.41 10.90 C 167.17 10.23 167.93 9.56 168.69 8.90 C 170.10 11.06 172.02 13.05 172.63 15.62 C 171.92 18.11 168.61 19.51 166.88 17.15 C 162.99 12.55 159.62 7.54 155.89 2.82 C 151.18 2.68 146.47 2.63 141.76 2.74 M 188.45 2.78 C 190.34 5.60 192.42 8.29 194.38 11.06 C 197.76 8.37 201.67 6.26 204.43 2.86 C 199.11 2.59 193.78 2.74 188.45 2.78 M 234.14 2.88 C 233.83 6.01 233.44 9.29 234.67 12.29 C 237.66 20.01 243.22 26.30 248.41 32.61 C 251.58 36.12 255.89 39.80 260.98 38.91 C 266.65 37.49 271.91 33.31 273.46 27.50 C 276.49 28.71 279.42 26.44 281.12 24.13 C 276.21 17.23 270.86 10.63 265.92 3.74 C 261.58 6.53 257.69 9.94 253.48 12.91 C 255.14 15.18 256.85 17.42 258.57 19.65 C 259.53 19.20 260.51 18.76 261.48 18.31 C 262.63 19.92 263.90 21.46 264.81 23.23 C 265.63 25.12 264.00 27.45 261.97 27.42 C 259.69 27.33 258.60 25.06 257.28 23.56 C 253.37 18.22 249.12 13.13 245.46 7.62 C 244.24 6.03 245.57 4.21 246.26 2.72 C 242.22 2.64 238.18 2.59 234.14 2.88 M 274.20 2.71 C 278.09 8.81 282.93 14.22 287.00 20.18 C 290.39 17.74 293.58 15.03 297.04 12.67 C 294.45 9.56 292.27 6.14 289.61 3.09 C 284.61 2.12 279.32 2.99 274.20 2.71 M 326.36 17.02 C 327.15 24.65 332.55 30.55 336.59 36.70 C 335.07 37.13 333.61 37.69 332.13 38.22 C 328.83 39.24 327.83 34.86 325.87 33.05 C 322.85 35.62 319.71 38.05 316.39 40.22 C 314.87 38.16 313.26 36.16 311.98 33.95 C 315.51 30.87 319.43 28.27 323.22 25.52 C 321.40 22.91 319.48 20.36 317.59 17.79 C 310.23 22.70 303.46 28.44 296.20 33.51 C 299.24 38.28 302.88 42.63 306.39 47.04 C 305.20 47.46 304.00 47.88 302.81 48.30 C 299.61 44.48 295.72 39.74 290.10 40.70 C 282.08 42.41 276.61 49.15 269.91 53.36 C 271.25 55.00 272.61 56.62 274.02 58.21 C 243.76 68.65 213.51 79.09 183.26 89.53 C 175.41 78.95 167.42 68.48 159.59 57.90 C 156.16 60.17 152.95 62.76 149.66 65.21 C 156.66 74.83 163.87 84.30 171.14 93.72 C 168.65 94.58 166.15 95.43 163.66 96.29 C 161.61 92.67 158.80 89.57 156.54 86.09 C 152.22 88.98 148.22 92.30 143.98 95.29 C 145.60 97.47 147.29 99.59 149.07 101.64 C 147.96 102.20 146.91 102.85 145.92 103.59 C 142.81 98.84 138.92 94.63 135.94 89.80 C 134.85 88.03 136.13 85.68 138.03 85.20 C 140.67 84.70 141.82 87.77 143.47 89.24 C 146.73 86.87 149.89 84.37 153.17 82.03 C 151.06 79.07 148.68 75.90 145.03 74.81 C 140.77 73.18 136.14 75.03 132.43 77.21 C 127.89 80.20 123.37 85.21 124.40 91.07 C 126.02 99.94 132.59 106.60 137.55 113.75 C 136.21 116.60 135.25 119.66 135.00 122.80 C 131.55 124.01 128.96 126.69 126.03 128.76 C 124.03 126.47 122.15 124.07 120.68 121.40 C 123.87 119.21 126.96 116.87 130.06 114.56 C 128.03 111.87 125.99 109.19 123.92 106.53 C 120.71 108.84 117.68 111.41 114.27 113.44 C 112.77 111.41 111.26 109.38 109.78 107.34 C 113.56 104.42 117.40 101.57 121.21 98.68 C 119.32 96.12 117.37 93.59 115.39 91.10 C 108.19 96.32 101.14 101.74 94.03 107.10 C 101.31 116.43 108.19 126.06 115.54 135.33 C 109.03 138.27 103.05 142.29 97.78 147.10 C 96.81 145.44 95.82 143.78 94.84 142.13 C 98.34 139.31 102.48 136.49 103.84 131.97 C 104.77 127.42 101.84 123.32 99.27 119.87 C 96.33 116.01 91.38 112.62 86.34 114.40 C 79.30 116.80 74.27 122.65 68.03 126.48 C 71.97 132.35 76.55 137.76 80.69 143.48 C 83.77 147.54 86.63 151.77 90.12 155.50 C 85.20 162.06 81.60 169.47 77.43 176.50 C 68.16 164.52 59.36 152.17 49.92 140.33 C 46.69 142.72 43.52 145.20 40.22 147.50 C 49.35 160.12 58.89 172.43 68.28 184.86 C 70.54 182.96 72.95 181.25 75.50 179.76 C 63.93 200.12 52.10 220.34 40.58 240.73 C 37.62 238.13 35.63 234.70 33.14 231.71 C 29.90 234.15 26.62 236.53 23.47 239.09 C 26.67 243.77 30.25 248.18 33.64 252.72 C 31.73 256.17 29.69 259.54 27.67 262.92 C 23.73 263.70 21.09 266.99 17.87 269.10 C 19.03 270.73 20.21 272.35 21.41 273.96 C 20.74 275.08 20.10 276.23 19.49 277.40 C 16.68 272.34 12.36 268.32 9.53 263.29 C 8.29 261.18 10.91 258.90 12.94 258.98 C 14.76 259.93 15.99 261.69 17.42 263.12 C 20.45 260.49 23.88 258.37 26.86 255.68 C 24.44 251.88 20.70 248.33 15.98 248.01 C 11.63 247.78 7.77 250.14 4.15 252.25 C 3.82 259.17 4.10 266.10 3.97 273.03 C 4.04 275.22 3.59 277.74 5.24 279.51 C 8.84 284.21 12.34 289.16 17.08 292.81 C 19.87 295.18 23.94 295.89 27.37 294.57 C 32.17 292.59 36.40 288.92 38.03 283.86 C 38.75 283.96 40.18 284.15 40.89 284.24 C 42.50 283.04 44.11 281.85 45.73 280.66 C 44.04 278.27 42.26 275.95 40.37 273.72 C 41.68 271.40 43.02 269.10 44.34 266.78 C 46.57 270.03 48.94 273.17 51.36 276.27 C 54.71 273.91 57.96 271.42 61.23 268.94 C 57.92 264.34 54.53 259.79 50.85 255.48 C 55.15 247.95 59.44 240.41 63.82 232.93 C 63.57 234.44 64.36 235.77 65.28 236.89 C 70.00 242.95 74.55 249.14 79.18 255.27 C 82.44 253.03 85.64 250.71 88.63 248.12 C 85.20 243.12 81.20 238.56 77.81 233.54 C 81.81 230.66 86.84 227.43 87.14 221.98 C 87.10 215.92 82.48 211.28 78.50 207.24 C 79.28 205.89 80.06 204.55 80.84 203.21 C 88.93 214.16 97.33 224.87 105.36 235.86 C 112.56 230.30 119.75 224.72 127.16 219.45 C 125.39 216.55 123.32 213.85 121.01 211.37 C 117.04 214.30 113.22 217.43 109.14 220.21 C 107.27 217.86 105.45 215.46 103.78 212.96 C 106.94 210.54 110.25 208.32 113.25 205.70 C 111.10 203.28 109.14 200.72 107.34 198.04 C 103.84 200.09 100.91 202.96 97.45 205.06 C 95.99 202.93 94.44 200.87 92.85 198.85 C 96.66 195.92 100.60 193.16 104.33 190.11 C 102.44 187.63 100.56 185.13 98.70 182.62 C 95.11 184.80 91.96 187.59 88.50 189.94 C 92.53 182.84 96.52 175.70 100.73 168.69 C 109.24 155.22 124.41 146.86 140.15 145.47 C 140.65 146.71 141.12 147.95 141.57 149.21 C 139.41 152.51 135.58 154.12 132.77 156.80 C 138.82 164.60 144.65 172.56 150.67 180.38 C 150.80 179.97 151.05 179.14 151.18 178.73 C 155.50 190.97 159.52 203.33 163.60 215.66 C 156.87 219.79 149.68 223.27 142.00 225.23 C 136.24 227.10 134.79 235.71 139.77 239.25 C 143.60 242.62 148.87 240.36 153.03 238.97 C 158.73 247.70 165.74 255.53 171.46 264.26 C 175.05 262.49 177.91 259.64 181.27 257.53 C 178.10 252.37 174.14 247.77 170.56 242.91 C 173.95 239.84 178.38 237.16 179.53 232.41 C 180.23 229.98 179.37 227.51 178.08 225.46 C 179.24 224.56 180.38 223.67 181.53 222.77 C 186.77 230.27 192.45 237.46 197.98 244.74 C 205.23 239.15 212.78 233.93 219.71 227.95 C 217.67 225.39 215.67 222.79 213.69 220.19 C 209.78 223.40 205.83 226.59 201.49 229.21 C 199.92 226.83 197.90 224.72 196.64 222.15 C 199.40 219.38 202.88 217.47 205.81 214.89 C 204.05 212.63 202.28 210.39 200.51 208.14 C 202.18 206.87 203.82 205.56 205.47 204.25 C 210.64 209.74 214.42 216.76 221.04 220.77 C 223.92 222.58 227.46 222.03 230.54 221.11 C 222.23 227.65 213.95 234.22 205.63 240.76 C 195.54 248.48 187.46 258.80 182.39 270.45 C 180.18 275.38 178.91 280.69 176.37 285.48 C 175.92 284.85 175.02 283.61 174.56 282.99 C 167.28 288.18 160.19 293.65 153.10 299.11 C 154.94 301.55 156.80 303.98 158.72 306.37 C 157.73 307.11 156.73 307.81 155.71 308.50 C 152.92 307.26 150.09 305.43 146.89 306.02 C 141.42 307.00 137.31 311.05 132.96 314.18 C 130.90 315.81 128.36 317.06 127.11 319.50 C 120.84 322.02 114.81 325.21 109.37 329.24 C 107.39 330.79 105.20 332.58 104.76 335.22 C 102.94 336.76 101.06 338.21 99.14 339.62 C 103.19 345.08 107.41 350.41 111.33 355.97 C 116.57 356.02 121.82 356.00 127.07 355.99 C 123.77 351.97 120.82 347.66 117.37 343.75 C 123.46 338.84 130.55 335.22 138.06 333.06 C 143.54 340.82 149.37 348.34 155.16 355.87 C 158.01 353.23 162.19 351.51 164.18 348.26 C 160.87 343.45 157.05 339.02 153.74 334.22 C 157.67 331.37 161.69 328.01 162.98 323.10 C 164.82 321.97 166.61 320.76 168.34 319.47 C 172.92 324.87 176.68 330.92 181.39 336.22 C 188.40 330.45 195.89 325.29 203.06 319.72 C 201.00 317.10 198.97 314.44 196.95 311.79 C 192.89 314.67 189.02 317.80 185.02 320.76 C 183.16 318.45 181.34 316.11 179.54 313.76 C 182.50 311.13 185.77 308.90 189.01 306.64 C 187.75 304.86 186.39 303.15 184.93 301.54 C 186.31 299.54 187.77 297.58 189.12 295.56 C 192.19 300.16 195.64 304.51 199.50 308.47 C 202.29 311.17 205.83 313.99 209.99 313.34 C 216.04 312.25 221.28 307.72 223.18 301.85 C 224.08 302.07 224.98 302.30 225.88 302.53 C 227.57 301.28 229.26 300.03 230.94 298.77 C 228.28 295.24 225.83 291.54 222.73 288.38 C 224.10 286.89 225.23 285.19 226.39 283.54 C 227.58 284.01 228.76 284.55 229.98 284.95 C 231.66 288.39 234.27 291.22 236.42 294.35 C 239.78 292.08 243.24 289.89 246.15 287.05 C 245.81 286.48 245.12 285.34 244.78 284.77 C 251.89 282.54 257.70 277.00 260.43 270.09 C 266.48 271.72 273.01 270.21 278.60 267.67 C 286.30 263.60 287.26 253.63 286.22 245.90 C 286.82 248.89 288.71 251.36 290.33 253.86 C 297.80 248.63 304.85 242.85 312.30 237.60 C 310.42 234.95 308.94 231.51 306.13 229.83 C 302.05 232.28 298.40 235.36 294.72 238.36 C 293.33 236.91 291.97 235.44 290.63 233.96 C 297.30 231.65 303.93 229.24 310.59 226.91 C 312.92 230.37 317.60 231.99 321.54 230.50 C 326.35 228.59 331.05 224.97 332.24 219.68 L 330.79 219.85 C 332.39 219.11 334.12 219.06 335.81 219.50 L 335.00 218.29 C 352.72 211.99 370.46 205.72 388.19 199.42 C 386.98 202.53 384.77 205.55 385.30 209.05 C 386.07 215.55 390.14 220.97 393.91 226.08 C 397.46 230.73 401.03 235.65 406.07 238.79 C 409.82 241.18 414.38 239.84 417.97 237.83 C 418.01 226.75 418.03 215.67 417.96 204.59 C 413.36 207.34 409.27 210.83 405.06 214.11 C 406.86 216.34 408.61 218.61 410.29 220.93 C 411.02 220.29 411.76 219.65 412.50 219.00 C 414.20 221.06 416.50 223.11 416.70 225.94 C 416.14 227.24 414.70 227.86 413.72 228.79 C 412.29 228.09 410.83 227.34 409.93 225.97 C 406.09 220.85 402.23 215.75 398.35 210.66 C 397.27 209.16 395.89 207.17 397.05 205.32 C 397.94 203.93 399.67 204.07 401.09 203.79 C 402.16 205.18 403.26 206.57 404.35 207.96 C 407.69 205.59 410.89 203.03 414.24 200.67 C 411.24 195.35 405.50 191.93 399.30 192.87 C 406.13 186.28 408.87 175.92 406.32 166.79 C 410.13 163.69 414.13 160.82 418.00 157.79 C 418.00 154.99 417.99 152.18 417.95 149.38 C 417.19 148.57 416.44 147.77 415.69 146.97 C 411.53 150.24 407.31 153.44 403.01 156.52 C 402.01 153.43 400.86 150.39 399.86 147.29 C 402.68 145.62 405.31 143.65 407.91 141.65 C 405.80 139.08 403.79 136.44 401.82 133.76 C 400.07 135.00 398.35 136.28 396.65 137.58 C 395.73 134.83 394.81 132.08 393.89 129.33 C 395.78 128.38 397.51 127.16 399.07 125.73 C 397.05 123.29 395.10 120.78 393.15 118.28 C 392.59 118.80 391.47 119.84 390.91 120.35 C 387.20 109.24 383.47 98.14 379.80 87.02 L 380.24 85.61 C 383.81 90.20 387.10 95.01 390.79 99.51 C 393.89 97.15 397.01 94.81 400.22 92.60 C 396.65 87.72 393.02 82.87 389.26 78.13 C 392.43 75.37 396.39 73.03 397.96 68.91 C 399.60 64.99 397.67 60.70 395.33 57.51 C 392.65 53.77 389.06 49.63 384.04 49.72 C 378.44 49.93 373.74 53.67 369.93 57.44 C 368.52 52.39 366.32 47.39 362.41 43.76 C 363.86 41.43 365.18 39.00 366.32 36.50 C 367.52 36.70 368.72 36.90 369.94 37.10 C 370.12 34.34 370.49 31.61 370.75 28.86 C 370.62 31.23 370.58 33.61 370.50 35.99 C 371.95 35.98 373.40 35.99 374.86 35.99 C 374.75 31.50 374.80 27.00 374.77 22.50 C 376.40 24.69 377.97 26.92 379.50 29.18 C 381.16 28.03 382.77 26.81 384.36 25.57 C 384.37 29.03 384.40 32.49 384.30 35.95 C 385.66 35.98 387.04 36.00 388.41 36.02 C 388.25 29.57 388.70 23.10 388.19 16.66 C 391.11 22.89 392.61 29.68 395.10 36.08 C 395.77 36.06 397.11 36.01 397.78 35.99 C 394.84 38.33 391.54 40.22 388.87 42.87 C 397.47 54.64 406.45 66.15 415.14 77.87 C 415.80 78.87 416.79 79.57 417.76 80.26 C 418.16 74.52 417.98 68.75 417.98 63.00 C 418.25 60.76 416.43 59.19 415.31 57.50 C 416.19 56.67 417.08 55.85 417.98 55.03 C 418.00 50.94 418.01 46.84 417.98 42.75 C 414.98 44.88 412.06 47.14 409.03 49.23 C 407.49 47.19 405.96 45.15 404.45 43.10 C 408.16 40.10 412.03 37.30 415.83 34.42 C 413.81 31.74 412.00 28.84 409.37 26.68 C 409.37 21.47 409.38 16.26 409.36 11.05 C 407.29 11.09 405.22 11.08 403.16 11.04 C 400.83 17.02 399.67 23.51 396.76 29.20 C 394.83 23.12 392.76 17.08 390.72 11.03 C 388.58 11.07 386.45 11.11 384.32 11.17 C 384.33 12.06 384.34 13.83 384.35 14.71 C 383.29 13.54 382.33 12.30 381.50 10.97 C 375.62 10.67 369.75 11.14 363.88 11.06 C 363.90 12.22 363.94 13.38 363.98 14.53 C 366.15 14.51 368.33 14.54 370.52 14.58 C 370.55 15.11 370.60 16.16 370.63 16.69 C 370.47 20.52 370.37 24.35 370.10 28.17 C 366.12 23.14 362.31 17.97 358.60 12.74 C 354.26 15.52 350.31 18.84 346.19 21.92 C 347.80 24.29 349.49 26.60 351.25 28.86 C 352.09 28.29 352.94 27.72 353.79 27.15 C 355.25 29.26 357.72 31.25 357.62 34.01 C 357.21 36.24 354.76 36.17 353.05 36.73 C 348.23 29.97 342.81 23.64 338.20 16.76 C 336.02 14.43 339.21 11.02 341.86 12.05 C 343.38 13.00 344.30 14.58 345.39 15.96 C 348.61 13.47 351.93 11.10 355.21 8.68 C 353.28 6.29 351.60 2.54 348.01 2.72 C 344.07 2.65 340.09 2.46 336.18 2.96 C 330.97 5.62 325.72 10.67 326.36 17.02 M 359.78 2.76 C 361.81 5.41 363.59 8.31 366.10 10.56 C 370.91 10.71 375.72 10.32 380.52 10.05 C 378.78 7.57 377.35 4.73 374.90 2.87 C 369.87 2.43 364.81 2.77 359.78 2.76 M 403.61 2.73 C 404.86 4.57 406.14 6.39 407.45 8.20 C 409.86 6.58 412.24 4.88 414.28 2.80 C 410.73 2.60 407.17 2.64 403.61 2.73 M 203.61 24.40 C 212.39 37.20 222.45 49.10 231.36 61.83 C 238.93 56.75 245.91 50.85 253.32 45.55 C 251.53 42.70 249.48 40.03 247.34 37.43 C 243.36 40.46 239.37 43.50 235.27 46.37 C 233.51 43.98 231.72 41.61 229.87 39.28 C 233.04 36.91 236.22 34.56 239.34 32.12 C 237.39 29.46 235.41 26.80 233.53 24.09 C 230.23 26.34 227.10 28.81 223.91 31.20 C 222.30 29.20 220.75 27.15 219.24 25.07 C 222.78 21.81 226.99 19.40 230.52 16.12 C 228.66 13.66 226.78 11.19 224.91 8.73 C 217.57 13.63 210.88 19.41 203.61 24.40 M 3.99 17.16 C 4.16 25.37 3.70 33.60 4.19 41.79 C 9.24 49.17 14.96 56.11 20.28 63.32 C 23.56 61.10 26.61 58.57 29.84 56.30 C 26.23 51.33 22.36 46.54 18.83 41.51 C 23.72 38.47 29.74 33.47 27.82 26.97 C 25.94 22.14 22.80 17.45 18.29 14.74 C 13.60 11.99 8.01 14.27 3.99 17.16 M 98.84 24.85 C 93.96 28.00 89.57 31.84 84.84 35.20 C 94.19 47.58 103.43 60.06 112.92 72.33 C 115.98 69.91 119.69 68.10 122.12 65.02 C 118.72 60.22 115.01 55.65 111.56 50.89 C 115.52 47.47 121.16 44.02 120.80 38.04 C 120.01 32.70 116.29 28.21 112.34 24.75 C 108.52 21.36 102.82 22.25 98.84 24.85 M 191.13 34.12 C 186.45 37.26 182.10 40.85 177.54 44.16 C 186.45 56.72 196.19 68.66 205.14 81.19 C 208.64 79.29 211.73 76.76 214.98 74.48 C 211.58 69.50 207.73 64.86 204.13 60.03 C 206.92 57.46 210.18 55.27 212.23 52.00 C 214.03 49.03 213.49 45.21 211.86 42.28 C 209.92 38.74 207.41 35.34 203.99 33.10 C 200.07 30.51 194.80 31.57 191.13 34.12 M 56.90 56.21 C 66.35 68.52 75.57 81.00 84.99 93.33 C 88.41 91.04 91.68 88.54 94.81 85.87 C 85.40 73.58 76.29 61.06 66.81 48.82 C 63.49 51.25 60.19 53.72 56.90 56.21 M 40.60 67.73 C 37.04 69.98 33.57 72.96 32.15 77.05 C 30.48 83.14 33.78 89.01 37.01 93.93 C 40.96 99.29 44.80 104.85 49.83 109.27 C 52.52 111.73 56.45 113.11 60.03 111.94 C 65.26 110.30 69.77 106.32 71.48 101.03 C 72.64 101.04 73.80 101.06 74.97 101.09 C 76.40 99.96 77.84 98.83 79.29 97.70 C 74.17 90.76 69.02 83.84 63.73 77.01 C 59.65 80.17 55.30 83.01 51.53 86.55 C 53.23 88.59 54.83 90.71 56.35 92.90 C 57.42 92.65 58.47 91.79 59.60 92.08 C 61.01 93.51 62.21 95.18 62.97 97.04 C 63.43 98.85 61.68 99.96 60.76 101.21 C 59.11 100.68 57.42 100.03 56.48 98.48 C 52.27 92.73 47.85 87.13 43.67 81.37 C 42.34 79.82 42.68 77.40 44.70 76.69 C 47.39 74.67 49.26 78.57 50.90 80.17 C 54.15 77.79 57.35 75.33 60.51 72.83 C 58.54 70.04 56.34 67.05 52.97 65.90 C 48.86 64.31 44.20 65.44 40.60 67.73 M 3.92 96.24 C 4.07 98.48 3.51 101.05 5.15 102.89 C 13.23 113.65 21.42 124.35 29.43 135.17 C 36.77 129.86 43.96 124.34 51.16 118.85 C 49.70 115.88 47.27 113.54 45.55 110.73 C 41.30 113.53 37.38 116.81 33.36 119.92 C 31.50 117.46 29.66 115.00 27.87 112.50 C 31.08 110.29 34.13 107.87 37.28 105.58 C 35.44 102.86 33.47 100.23 31.57 97.55 C 28.17 99.47 25.39 102.27 22.02 104.22 C 19.93 102.68 18.70 100.30 17.18 98.25 C 21.00 95.35 24.97 92.62 28.50 89.36 C 26.60 86.91 24.72 84.45 22.84 81.98 C 16.41 86.56 10.18 91.42 3.92 96.24 M 403.02 112.15 C 400.59 117.27 403.23 122.87 405.72 127.41 C 409.26 133.08 413.37 138.44 417.93 143.34 C 417.92 136.59 418.26 129.82 417.78 123.10 C 416.45 120.27 414.18 117.97 412.70 115.21 C 413.98 113.44 415.90 112.53 417.99 112.13 C 418.00 108.57 418.00 105.02 417.99 101.46 C 411.80 102.54 405.80 106.42 403.02 112.15 M 4.05 107.85 C 3.97 115.75 3.96 123.66 4.06 131.56 C 7.64 129.15 11.22 125.62 11.34 121.03 C 11.08 115.77 7.28 111.67 4.05 107.85 M 4.04 135.80 C 3.97 141.97 4.00 148.15 4.02 154.33 C 7.16 152.25 10.17 149.98 13.04 147.55 C 9.92 143.73 7.05 139.71 4.04 135.80 M 23.47 159.38 C 19.03 162.03 14.74 166.45 14.92 171.98 C 14.99 177.57 18.26 182.40 21.25 186.88 C 24.88 191.82 28.54 196.85 33.24 200.83 C 35.95 203.15 39.77 204.79 43.31 203.45 C 48.37 201.46 53.39 197.83 54.61 192.22 C 55.63 192.43 56.64 192.65 57.66 192.86 C 59.19 191.62 61.11 190.69 62.22 189.01 C 57.32 181.98 52.03 175.20 46.85 168.37 C 42.90 171.52 38.97 174.71 34.72 177.45 C 36.23 179.95 37.97 182.31 39.93 184.49 C 40.81 183.96 41.70 183.43 42.59 182.91 C 44.30 185.35 46.48 187.77 46.22 190.98 C 44.38 191.87 41.69 192.94 40.32 190.71 C 35.63 184.70 31.06 178.57 26.61 172.38 C 24.49 169.95 28.31 166.41 30.74 168.10 C 32.00 169.13 33.02 170.40 34.12 171.59 C 37.30 169.18 40.46 166.74 43.71 164.42 C 41.72 161.49 39.32 158.60 35.95 157.23 C 31.72 155.95 27.09 156.95 23.47 159.38 M 109.80 173.93 C 106.81 177.61 107.15 182.88 108.83 187.05 C 111.79 194.21 116.90 200.17 121.78 206.08 C 125.17 209.63 129.62 213.98 135.00 212.72 C 140.60 211.06 146.00 207.03 147.33 201.06 C 148.23 201.40 149.14 201.75 150.05 202.10 C 151.76 200.80 153.44 199.47 155.10 198.11 C 149.96 191.27 144.71 184.53 139.72 177.60 C 135.40 180.36 131.55 183.78 127.25 186.58 C 128.88 189.05 130.66 191.42 132.52 193.73 C 133.34 193.12 134.16 192.51 134.98 191.91 C 136.52 194.30 140.99 197.86 137.59 200.48 C 134.98 202.78 132.75 199.59 131.24 197.68 C 127.36 192.26 123.12 187.11 119.32 181.65 C 117.78 179.72 119.46 176.41 121.96 176.74 C 124.26 176.73 125.14 179.26 126.53 180.67 C 129.79 178.22 133.41 176.12 136.21 173.12 C 133.73 169.69 130.48 166.04 125.96 165.75 C 119.59 165.39 113.70 169.15 109.80 173.93 M 4.13 174.97 C 3.75 179.02 4.10 183.10 4.00 187.16 C 6.54 185.07 9.13 183.04 11.70 181.00 C 9.75 178.41 7.79 175.82 5.79 173.27 C 5.37 173.70 4.55 174.55 4.13 174.97 M 410.71 183.54 C 412.72 187.11 415.30 190.32 417.93 193.44 C 418.04 188.44 418.01 183.44 417.95 178.43 C 415.54 180.14 413.15 181.88 410.71 183.54 M 5.56 195.93 C 5.17 195.68 4.39 195.18 4.00 194.93 C 4.10 201.59 3.80 208.27 4.11 214.93 C 6.55 219.11 9.94 222.70 12.80 226.61 C 19.06 221.94 25.30 217.22 31.56 212.55 C 32.46 211.73 33.75 211.16 34.23 209.99 C 32.66 207.16 30.45 204.76 28.64 202.08 C 24.55 205.09 20.61 208.33 16.44 211.23 C 14.74 208.80 12.95 206.44 11.09 204.14 C 14.05 201.64 17.38 199.59 20.19 196.90 C 18.93 193.89 16.43 191.61 14.63 188.93 C 11.44 191.04 8.42 193.39 5.56 195.93 M 355.07 225.53 C 364.26 238.17 373.92 250.47 383.22 263.04 C 390.32 257.29 397.75 251.95 405.10 246.53 C 403.14 243.80 401.11 241.11 399.03 238.48 C 394.92 241.35 391.02 244.51 386.93 247.39 C 385.09 245.08 383.32 242.71 381.68 240.26 C 384.71 237.65 388.22 235.61 390.98 232.70 C 388.84 230.25 386.84 227.68 384.88 225.09 C 381.77 227.54 378.68 230.01 375.40 232.24 C 373.85 230.14 372.31 228.04 370.77 225.94 C 374.59 223.15 378.26 220.16 382.19 217.53 C 380.37 214.77 378.39 212.13 376.26 209.60 C 369.33 215.08 362.26 220.39 355.07 225.53 M 344.32 234.24 C 338.86 237.40 334.12 241.64 329.02 245.32 C 338.35 257.70 347.64 270.11 357.09 282.40 C 360.40 280.25 363.52 277.82 366.51 275.26 C 363.00 270.39 359.14 265.79 355.73 260.86 C 359.62 257.78 364.69 254.51 365.02 249.05 C 364.66 243.48 360.87 238.75 356.87 235.15 C 353.52 231.89 348.18 231.96 344.32 234.24 M 115.89 248.16 C 125.33 260.49 134.60 272.96 143.97 285.35 C 147.29 282.99 150.47 280.45 153.84 278.16 C 144.87 265.45 135.02 253.39 125.91 240.79 C 122.47 243.12 119.26 245.74 115.89 248.16 M 99.05 260.01 C 94.92 262.69 90.74 266.71 90.71 271.99 C 90.70 278.15 94.38 283.45 97.72 288.33 C 102.05 293.83 106.02 300.14 112.38 303.50 C 119.92 306.49 127.76 300.06 130.53 293.32 C 133.65 293.45 136.12 291.68 138.32 289.68 C 133.15 282.74 127.88 275.89 122.76 268.92 C 118.64 272.14 114.33 275.11 110.27 278.41 C 112.14 280.51 113.88 282.74 115.45 285.08 C 116.37 284.60 117.29 284.12 118.22 283.65 C 119.94 285.75 121.97 287.86 122.22 290.72 C 121.10 291.55 119.98 292.38 118.88 293.23 C 117.52 292.31 116.11 291.42 115.15 290.08 C 111.11 284.75 107.11 279.40 103.09 274.06 C 101.73 272.53 101.21 269.52 103.56 268.68 C 106.27 266.58 108.13 270.40 109.58 272.12 C 113.18 269.95 116.39 267.23 119.71 264.68 C 117.48 262.06 115.27 259.17 111.96 257.89 C 107.68 256.01 102.82 257.74 99.05 260.01 M 301.04 266.42 C 310.70 278.57 319.79 291.16 329.17 303.53 C 332.47 301.12 335.87 298.80 338.91 296.04 C 329.77 283.58 320.39 271.26 311.07 258.92 C 307.71 261.40 304.26 263.76 301.04 266.42 M 393.72 275.33 C 401.80 285.98 409.81 296.68 417.93 307.30 C 418.06 301.51 417.96 295.72 418.03 289.93 C 417.94 288.54 418.23 286.95 417.19 285.83 C 412.64 279.89 408.11 273.92 403.67 267.89 C 400.33 270.35 397.08 272.92 393.72 275.33 M 63.01 287.90 C 62.29 288.64 60.11 289.44 61.21 290.74 C 69.99 303.09 79.55 314.89 88.41 327.20 C 95.73 321.82 102.90 316.24 110.25 310.89 C 108.44 308.02 106.44 305.27 104.31 302.64 C 100.35 305.73 96.35 308.78 92.30 311.74 C 90.45 309.34 88.65 306.91 86.91 304.44 C 90.06 302.20 93.09 299.81 96.26 297.61 C 94.33 294.97 92.80 291.63 90.04 289.84 C 86.85 291.69 84.25 294.40 81.01 296.19 C 78.92 294.65 77.70 292.24 76.15 290.22 C 79.85 287.33 83.66 284.57 87.40 281.74 C 85.64 279.06 83.67 276.54 81.77 273.96 C 75.48 278.56 69.34 283.37 63.01 287.90 M 277.54 284.60 C 274.03 290.14 276.78 296.97 279.97 301.98 C 283.42 307.40 287.27 312.62 291.72 317.27 C 294.67 320.15 298.50 323.21 302.91 322.37 C 308.91 321.10 313.95 316.60 315.97 310.81 C 316.87 311.05 317.77 311.30 318.67 311.56 C 320.04 310.12 322.86 309.22 323.10 307.22 C 318.02 300.51 312.95 293.77 307.88 287.05 C 303.87 290.21 299.71 293.16 295.65 296.24 C 297.03 298.20 298.32 300.24 299.94 302.02 C 300.83 303.73 302.47 302.13 303.74 301.87 C 305.25 304.08 308.86 307.59 306.06 310.05 C 303.92 312.37 301.31 309.78 300.10 307.89 C 296.02 302.02 291.30 296.61 287.42 290.63 C 286.09 288.59 288.29 286.71 290.07 286.10 C 292.36 286.36 293.37 288.80 295.03 290.10 C 298.52 287.97 301.59 285.23 304.87 282.80 C 302.73 280.42 300.86 277.47 297.75 276.28 C 290.15 273.15 281.72 278.27 277.54 284.60 M 369.58 294.60 C 366.96 300.26 369.70 306.45 372.70 311.36 C 376.56 317.30 380.92 322.98 386.08 327.85 C 388.73 330.32 392.49 332.44 396.21 331.30 C 401.62 329.65 406.68 325.70 408.28 320.08 C 411.50 321.39 413.81 318.58 416.16 316.87 C 410.96 309.93 405.71 303.02 400.52 296.06 C 396.45 299.22 392.37 302.37 388.19 305.40 C 389.91 307.65 391.61 309.92 393.30 312.20 C 394.23 311.71 395.17 311.24 396.11 310.76 C 397.55 312.72 399.28 314.59 400.04 316.96 C 399.56 319.01 396.58 321.15 394.79 319.32 C 391.53 315.82 389.09 311.66 386.02 308.01 C 383.96 305.04 381.25 302.44 379.84 299.08 C 379.21 296.76 381.56 295.96 383.04 294.87 C 384.75 296.23 386.34 297.73 387.81 299.36 C 390.81 296.74 394.24 294.68 397.20 292.03 C 394.81 287.66 390.31 283.96 385.10 284.31 C 378.67 284.98 372.81 289.07 369.58 294.60 M 246.08 307.99 L 246.04 308.60 C 255.17 320.81 264.57 332.85 273.47 345.23 C 281.10 340.02 288.42 334.36 295.66 328.62 C 293.58 326.07 291.58 323.45 289.63 320.81 C 285.62 323.77 281.64 326.78 277.67 329.79 C 275.79 327.45 273.96 325.08 272.16 322.68 C 275.04 320.04 278.94 318.27 281.24 315.17 C 279.55 312.55 277.50 310.18 275.68 307.66 C 272.32 309.72 269.23 312.18 266.23 314.73 C 264.52 312.64 262.89 310.50 261.31 308.32 C 265.21 305.43 269.13 302.56 272.95 299.56 C 270.81 297.19 269.02 294.53 266.80 292.23 C 259.90 297.48 252.73 302.44 246.08 307.99 M 4.01 299.35 C 3.99 303.62 4.00 307.90 4.00 312.17 C 8.50 308.50 13.26 305.16 17.83 301.57 C 15.79 299.03 13.84 296.43 11.97 293.76 C 9.22 295.49 6.61 297.42 4.01 299.35 M 47.74 299.71 C 43.21 302.88 38.79 306.21 34.45 309.63 C 43.70 322.11 53.30 334.31 62.37 346.91 C 65.59 344.43 68.94 342.11 72.06 339.50 C 68.11 334.97 64.97 329.80 60.89 325.37 C 63.32 323.28 65.98 321.43 68.08 318.99 C 70.34 316.38 70.99 312.52 69.57 309.35 C 67.52 304.50 64.08 299.99 59.31 297.58 C 55.41 296.07 51.02 297.35 47.74 299.71 M 338.54 317.13 C 347.40 329.78 357.09 341.90 366.30 354.33 C 373.67 348.97 380.89 343.40 388.14 337.89 C 386.23 335.14 384.20 332.48 382.12 329.86 C 378.18 332.97 374.06 335.83 370.18 339.01 C 368.38 336.59 366.54 334.19 364.67 331.83 C 367.72 329.28 371.06 327.09 374.19 324.64 C 372.18 322.02 370.45 319.15 368.06 316.85 C 364.81 318.86 361.89 321.37 358.77 323.57 C 357.04 321.58 355.41 319.52 353.92 317.36 C 357.74 314.60 361.48 311.73 365.29 308.96 C 363.50 306.28 361.53 303.72 359.68 301.09 C 352.57 306.35 345.41 311.57 338.54 317.13 M 237.64 315.48 C 230.81 318.02 225.80 323.66 219.66 327.42 C 226.41 337.22 233.88 346.50 241.03 356.01 C 246.04 355.98 251.05 356.03 256.06 355.97 C 252.58 351.92 249.60 347.47 246.10 343.45 C 249.94 340.36 254.85 337.27 255.52 331.94 C 255.82 327.29 252.82 323.37 250.05 319.97 C 247.14 316.40 242.28 313.75 237.64 315.48 M 16.37 323.20 C 13.13 325.75 9.64 327.96 6.56 330.73 C 12.51 338.39 18.29 346.17 24.07 353.96 C 24.87 354.80 25.54 356.30 26.97 355.98 C 31.71 356.08 36.45 355.95 41.20 356.00 C 32.81 345.15 24.81 334.01 16.37 323.20 M 316.51 333.47 C 315.22 334.61 313.34 335.38 312.68 337.05 C 316.97 343.65 322.15 349.66 326.77 356.04 C 331.64 355.97 336.52 356.01 341.41 356.00 C 340.57 354.74 339.73 353.48 338.90 352.23 C 342.63 349.61 346.73 346.65 347.97 342.02 C 348.81 337.67 346.26 333.74 343.76 330.45 C 341.05 326.77 336.85 323.19 331.95 324.09 C 325.90 325.42 321.46 330.09 316.51 333.47 M 411.14 341.24 C 413.55 344.07 415.74 347.07 417.89 350.11 C 418.06 345.35 417.98 340.58 418.00 335.82 C 415.69 337.60 413.40 339.40 411.14 341.24 M 4.04 340.70 C 3.97 344.43 3.99 348.16 4.03 351.89 C 6.01 350.34 8.03 348.84 10.12 347.45 C 8.60 344.78 6.39 342.64 4.04 340.70 M 191.80 348.51 C 193.48 351.11 195.32 353.61 197.29 356.00 C 202.40 355.99 207.51 356.02 212.63 355.97 C 208.91 351.07 205.43 345.98 201.38 341.35 C 198.23 343.79 195.13 346.31 191.80 348.51 M 76.71 355.94 C 85.27 356.06 93.83 355.99 102.39 355.98 C 100.19 352.63 97.18 349.28 92.94 348.84 C 86.62 347.75 81.04 351.84 76.71 355.94 M 286.78 355.95 C 290.63 356.02 294.48 356.01 298.33 355.99 C 296.97 354.23 296.07 351.78 294.00 350.77 C 291.39 352.19 289.13 354.15 286.78 355.95 M 7.49 355.93 C 10.56 356.02 13.62 356.02 16.69 355.97 C 15.59 354.43 14.47 352.91 13.34 351.40 C 11.29 352.78 9.33 354.28 7.49 355.93 M 392.21 355.09 C 392.42 358.38 395.20 353.52 392.21 355.09 M 17.09 367.40 C 16.88 382.59 17.08 397.79 17.00 412.98 C 19.89 412.97 22.79 412.98 25.68 412.99 C 25.62 403.84 25.84 394.69 25.49 385.55 C 27.94 394.55 28.90 403.89 30.97 412.99 C 34.31 412.96 37.65 412.96 41.00 412.99 C 40.98 397.80 41.00 382.61 41.00 367.43 C 38.01 367.50 35.02 367.49 32.03 367.50 C 32.00 374.71 32.00 381.92 32.01 389.13 C 31.94 391.44 32.59 393.66 33.09 395.89 C 32.54 395.10 31.97 394.34 31.42 393.57 C 30.69 384.80 28.61 376.22 27.29 367.53 C 23.89 367.51 20.49 367.53 17.09 367.40 M 69.19 367.30 C 64.46 368.97 62.64 374.26 62.11 378.82 C 61.50 386.90 61.45 395.04 62.21 403.11 C 62.74 407.54 64.82 412.88 69.81 413.65 C 73.56 414.73 77.03 412.44 78.79 409.25 C 78.76 410.48 78.73 411.72 78.72 412.96 C 80.87 412.97 83.03 412.99 85.18 413.00 C 85.41 404.67 85.24 396.34 85.26 388.02 C 81.43 388.11 77.61 388.11 73.79 388.04 C 73.76 390.80 73.66 393.56 73.82 396.33 C 74.47 396.43 75.75 396.63 76.40 396.74 C 75.95 399.44 77.49 403.80 74.41 405.22 C 72.21 405.95 71.64 403.21 71.51 401.60 C 71.27 394.73 71.51 387.86 71.40 380.99 C 71.45 378.92 71.28 376.38 73.12 374.97 C 74.55 374.59 75.23 375.93 76.07 376.78 C 76.04 378.52 76.03 380.26 76.01 382.00 C 79.02 381.99 82.02 382.00 85.03 382.00 C 85.12 377.62 84.74 372.75 81.68 369.33 C 78.39 366.22 73.32 366.23 69.19 367.30 M 213.74 367.51 C 214.10 380.15 213.12 392.86 214.33 405.44 C 215.32 414.18 227.33 416.31 233.15 411.08 C 236.20 407.89 236.84 403.21 236.99 398.99 C 237.01 388.48 236.99 377.97 237.00 367.46 C 233.82 367.50 230.64 367.52 227.47 367.47 C 227.14 379.99 227.98 392.56 227.01 405.06 C 226.24 405.08 224.69 405.13 223.91 405.15 C 223.34 403.14 223.05 401.06 223.10 398.97 C 223.15 388.49 223.07 378.01 223.15 367.54 C 220.01 367.48 216.87 367.48 213.74 367.51 M 273.32 367.45 C 269.33 368.78 267.45 373.06 267.01 376.94 C 266.11 384.89 266.23 392.93 266.72 400.90 C 266.98 405.06 267.88 409.95 271.80 412.25 C 276.48 414.71 283.39 414.62 286.85 410.13 C 290.20 405.51 290.05 399.49 290.00 394.05 C 286.96 394.14 283.91 394.12 280.87 394.02 C 280.93 397.74 280.91 401.50 279.97 405.13 C 279.24 405.12 277.78 405.08 277.05 405.07 C 275.56 396.77 276.24 388.28 276.30 379.91 C 276.47 378.11 276.85 373.73 279.61 375.29 C 281.11 378.04 280.53 381.29 280.64 384.29 C 283.75 384.27 286.86 384.29 289.98 384.23 C 289.83 379.20 290.20 373.47 286.69 369.40 C 283.16 366.08 277.68 366.19 273.32 367.45 M 348.69 370.51 C 345.70 374.72 345.71 380.23 346.23 385.16 C 346.79 389.65 350.63 392.62 354.24 394.79 C 356.57 396.25 359.77 397.70 359.52 400.98 C 359.42 402.45 359.35 405.75 357.12 405.22 C 354.34 405.02 354.99 401.19 355.03 399.41 C 352.08 401.72 349.00 398.40 345.71 398.95 C 345.79 402.92 345.70 407.33 348.32 410.61 C 350.79 413.49 354.93 414.04 358.52 413.77 C 362.70 413.66 366.90 411.25 368.16 407.09 C 369.64 402.01 369.70 396.32 367.88 391.31 C 366.59 389.61 365.34 387.79 363.42 386.74 C 360.51 384.80 356.28 383.74 355.33 379.91 C 354.66 378.05 355.54 374.80 357.93 374.91 C 359.69 376.28 359.44 378.68 359.68 380.67 C 362.64 380.65 365.61 380.65 368.58 380.66 C 368.37 376.00 368.01 370.04 363.15 367.79 C 358.46 365.87 351.92 366.08 348.69 370.51 M 396.35 372.46 C 394.52 376.69 394.74 381.50 395.25 385.98 C 396.66 392.40 403.63 394.44 408.08 398.28 C 408.07 400.58 409.22 404.74 406.03 405.33 C 403.15 404.78 404.01 401.20 403.65 399.10 C 400.59 399.15 397.55 399.15 394.50 399.10 C 394.57 403.84 394.74 410.01 399.56 412.49 C 405.09 414.92 413.51 414.43 416.50 408.38 C 418.52 403.71 418.45 398.27 417.40 393.39 C 416.14 388.40 411.26 386.13 407.20 383.81 C 404.21 382.21 402.71 377.76 405.32 375.16 C 408.50 374.18 408.36 378.58 408.42 380.64 C 411.36 380.61 414.31 380.77 417.25 380.59 C 417.28 377.50 417.13 374.25 415.74 371.42 C 411.79 364.45 399.54 365.07 396.35 372.46 M 4.11 367.51 C 4.22 382.66 4.14 397.81 4.16 412.96 C 7.38 412.95 10.60 412.97 13.83 412.95 C 13.78 397.81 13.76 382.66 13.84 367.52 C 10.59 367.48 7.35 367.50 4.11 367.51 M 94.20 367.51 C 91.52 382.67 88.85 397.84 86.19 413.00 C 89.42 412.98 92.65 412.99 95.88 413.00 C 96.23 410.66 96.61 408.33 97.00 406.00 C 99.04 405.99 101.08 405.99 103.12 406.00 C 103.57 408.31 103.93 410.64 104.20 412.99 C 107.49 412.97 110.79 412.96 114.08 413.00 C 111.53 398.97 109.11 384.91 106.69 370.85 C 106.21 369.86 106.69 367.92 105.44 367.53 C 101.70 367.38 97.95 367.54 94.20 367.51 M 115.37 412.95 C 118.35 412.97 121.33 412.96 124.31 412.96 C 124.47 401.97 124.07 390.98 124.37 380.00 C 125.79 390.97 127.22 401.95 128.47 412.94 C 130.76 412.96 133.06 412.98 135.36 412.98 C 136.84 402.29 137.75 391.51 139.59 380.88 C 139.75 391.57 139.50 402.28 139.59 412.99 C 142.58 412.98 145.58 412.99 148.57 412.92 C 148.44 397.77 148.55 382.61 148.52 367.46 C 144.04 367.52 139.57 367.52 135.09 367.47 C 133.80 376.58 133.34 385.80 131.83 394.87 C 130.89 385.74 130.24 376.57 129.05 367.46 C 124.50 367.51 119.95 367.50 115.40 367.49 C 115.38 382.64 115.42 397.80 115.37 412.95 M 152.01 367.49 C 151.99 382.65 152.01 397.81 152.00 412.97 C 158.98 412.96 165.97 413.02 172.95 412.95 C 172.89 409.47 172.91 406.00 172.94 402.54 C 169.14 402.50 165.34 402.51 161.54 402.55 C 161.52 399.95 161.52 397.35 161.54 394.75 C 164.94 394.75 168.34 394.75 171.74 394.79 C 171.72 391.47 171.71 388.16 171.75 384.85 C 168.35 384.81 164.95 384.81 161.55 384.87 C 161.53 382.56 161.53 380.27 161.50 377.97 C 165.14 377.96 168.77 377.97 172.41 377.97 C 172.39 374.47 172.39 370.97 172.39 367.47 C 165.60 367.54 158.80 367.49 152.01 367.49 M 187.93 367.48 C 187.92 382.64 187.91 397.80 187.93 412.96 C 191.05 412.96 194.16 412.98 197.28 412.99 C 197.35 407.30 197.29 401.60 197.30 395.91 C 200.74 395.90 204.69 395.92 207.32 393.31 C 211.54 389.47 211.48 383.25 211.07 378.01 C 210.88 373.74 208.47 368.93 203.98 367.95 C 198.68 367.07 193.27 367.68 187.93 367.48 M 240.10 367.51 C 240.20 382.67 240.16 397.83 240.13 412.99 C 243.35 412.96 246.58 412.95 249.81 412.99 C 249.78 406.97 249.77 400.96 249.83 394.94 C 250.59 394.97 252.12 395.02 252.89 395.04 C 255.42 400.63 252.97 407.13 254.74 412.99 C 258.17 412.98 261.61 412.98 265.05 413.00 C 262.23 408.16 264.17 402.33 263.25 397.07 C 263.14 394.31 261.69 390.84 258.47 390.80 C 263.91 387.86 264.32 380.91 263.42 375.49 C 262.95 372.00 260.68 368.28 256.90 367.82 C 251.33 367.11 245.69 367.67 240.10 367.51 M 292.64 412.60 C 295.48 413.51 298.93 412.71 302.00 412.97 C 301.99 406.87 302.01 400.78 301.97 394.68 C 303.47 394.66 304.97 394.65 306.48 394.65 C 306.51 400.76 306.48 406.87 306.49 412.99 C 309.65 412.94 312.82 412.97 315.99 412.99 C 316.01 397.81 315.99 382.64 316.00 367.47 C 312.83 367.51 309.66 367.51 306.49 367.49 C 306.47 373.00 306.51 378.51 306.46 384.03 C 304.97 384.01 303.48 384.00 302.00 383.99 C 302.00 378.48 302.01 372.97 301.99 367.46 C 298.85 367.50 295.72 367.50 292.58 367.47 C 292.63 382.51 292.52 397.56 292.64 412.60 M 325.29 367.54 C 322.90 382.73 319.97 397.84 317.40 413.00 C 320.64 412.95 323.88 412.96 327.12 413.00 C 327.54 410.67 327.89 408.34 328.09 406.00 C 330.14 405.98 332.19 405.91 334.24 406.01 C 335.00 408.21 335.03 410.58 335.34 412.88 C 338.62 413.00 341.90 412.98 345.18 412.98 C 342.61 397.79 339.97 382.60 337.19 367.44 C 333.22 367.53 329.25 367.47 325.29 367.54 M 372.00 367.46 C 372.01 382.63 372.01 397.81 372.00 412.98 C 378.92 412.95 385.84 412.97 392.76 412.98 C 392.75 409.50 392.74 406.02 392.81 402.55 C 388.99 402.50 385.18 402.52 381.37 402.52 C 381.39 399.93 381.39 397.33 381.41 394.75 C 384.80 394.75 388.20 394.75 391.60 394.79 C 391.55 391.47 391.55 388.15 391.63 384.84 C 388.21 384.82 384.79 384.83 381.37 384.80 C 381.37 382.53 381.37 380.25 381.33 377.98 C 384.94 377.96 388.55 377.97 392.17 377.98 C 392.20 374.48 392.18 370.97 392.19 367.47 C 385.46 367.52 378.73 367.54 372.00 367.46 M 44.00 389.20 C 44.00 392.69 44.03 396.18 44.01 399.67 C 49.11 399.64 54.21 399.59 59.31 399.69 C 59.36 396.18 59.36 392.68 59.25 389.17 C 54.16 389.24 49.08 389.24 44.00 389.20 Z" />
<path fill="#181617" opacity="1.00" d=" M 404.63 18.31 C 405.21 22.42 405.15 26.57 404.99 30.70 C 402.90 32.24 400.84 33.80 398.74 35.32 C 400.54 29.59 402.59 23.95 404.63 18.31 Z" />
<path fill="#181617" opacity="1.00" d=" M 6.80 25.30 C 8.48 24.71 10.17 23.71 12.02 24.00 C 14.18 25.53 15.73 27.87 16.58 30.35 C 16.71 32.31 14.74 33.55 13.58 34.90 C 11.35 31.68 8.77 28.70 6.80 25.30 Z" />
<path fill="#181617" opacity="1.00" d=" M 99.81 34.90 C 100.45 33.17 103.04 32.87 104.68 33.12 C 106.91 35.10 109.61 37.73 108.96 41.02 C 108.28 42.15 107.15 42.91 106.21 43.81 C 104.13 40.81 101.60 38.11 99.81 34.90 Z" />
<path fill="#181617" opacity="1.00" d=" M 191.97 43.43 C 193.79 42.93 195.82 41.10 197.67 42.51 C 199.57 43.97 200.94 46.11 201.70 48.38 C 201.93 50.32 200.02 51.60 199.06 53.04 C 196.61 49.90 194.02 46.85 191.97 43.43 Z" />
<path fill="#181617" opacity="1.00" d=" M 284.44 54.53 C 285.16 51.63 287.96 51.04 290.52 50.68 C 290.38 51.19 290.10 52.21 289.97 52.72 C 288.14 53.36 286.28 53.92 284.44 54.53 Z" />
<path fill="#181617" opacity="1.00" d=" M 343.42 50.63 C 347.42 50.88 351.45 52.81 353.49 56.37 C 355.10 59.49 355.77 62.98 357.21 66.18 C 340.76 72.09 324.19 77.66 307.69 83.43 C 304.02 78.67 300.43 73.85 296.80 69.05 C 298.25 67.69 299.69 66.30 301.19 64.98 C 306.04 62.61 311.39 61.30 316.48 59.46 C 317.96 63.94 321.48 67.28 324.35 70.91 C 331.49 65.39 338.70 59.94 346.02 54.65 C 345.14 53.31 344.27 51.97 343.42 50.63 Z" />
<path fill="#181617" opacity="1.00" d=" M 377.22 61.93 C 378.81 61.10 380.73 59.06 382.62 60.43 C 384.75 62.04 386.46 64.44 387.02 67.07 C 386.69 68.69 385.43 69.90 384.59 71.26 C 381.86 68.37 379.60 65.10 377.22 61.93 Z" />
<path fill="#181617" opacity="1.00" d=" M 260.78 78.65 C 268.35 75.97 275.96 73.40 283.56 70.78 C 287.20 76.68 291.96 81.77 295.61 87.66 C 287.92 90.20 280.33 93.06 272.62 95.54 C 272.19 93.81 271.37 92.23 270.23 90.86 C 267.02 86.84 263.94 82.71 260.78 78.65 Z" />
<path fill="#181617" opacity="1.00" d=" M 241.29 85.27 C 243.82 84.50 246.32 83.62 248.84 82.78 C 252.75 88.49 256.87 94.06 261.36 99.33 L 261.52 99.53 C 258.99 100.32 256.49 101.20 253.99 102.08 C 252.39 99.68 250.68 97.36 248.88 95.10 C 244.88 98.24 240.80 101.30 236.72 104.33 C 237.45 105.31 238.18 106.30 238.92 107.28 C 237.82 107.66 236.71 108.03 235.61 108.39 C 233.04 104.95 229.99 101.78 228.14 97.87 C 227.48 96.05 229.63 94.74 231.05 94.13 C 233.26 94.66 234.59 96.69 236.15 98.17 C 239.41 95.85 242.61 93.44 245.75 90.95 C 244.27 89.04 242.78 87.15 241.29 85.27 Z" />
<path fill="#181617" opacity="1.00" d=" M 379.15 84.37 L 379.21 84.50 C 379.22 84.56 379.24 84.66 379.26 84.72 L 379.15 84.37 Z" />
<path fill="#181617" opacity="1.00" d=" M 162.82 112.47 C 180.99 106.12 199.19 99.83 217.42 93.63 C 216.20 100.31 217.94 108.49 223.78 112.49 C 217.31 114.86 210.77 117.07 204.26 119.32 C 203.62 118.38 202.99 117.45 202.35 116.52 C 206.10 113.52 209.93 110.63 213.74 107.71 C 211.86 105.12 209.91 102.58 207.89 100.10 C 200.91 105.54 193.67 110.62 186.77 116.15 C 188.51 118.63 190.31 121.07 192.41 123.26 C 190.82 123.79 189.23 124.61 187.58 124.77 C 180.42 120.21 172.27 125.86 167.56 131.36 L 167.41 131.51 C 162.73 133.31 157.92 134.76 153.18 136.42 C 151.37 131.58 148.73 126.43 150.53 121.17 C 155.63 120.60 160.53 117.55 162.65 112.77 L 162.82 112.47 Z" />
<path fill="#181617" opacity="1.00" d=" M 365.40 103.77 C 366.08 103.52 367.42 103.02 368.10 102.77 C 368.88 104.91 369.66 107.06 370.26 109.27 C 368.45 107.61 366.88 105.72 365.40 103.77 Z" />
<path fill="#181617" opacity="1.00" d=" M 346.30 110.30 C 348.71 109.46 351.11 108.60 353.55 107.83 C 356.39 112.25 359.65 116.38 362.92 120.50 C 365.99 118.31 368.99 116.03 371.89 113.61 C 373.78 118.92 375.71 124.22 377.42 129.59 C 375.76 131.34 373.88 132.85 371.93 134.26 C 375.87 139.37 379.40 144.84 384.04 149.36 C 387.01 155.32 388.57 161.91 391.00 168.11 C 392.67 171.98 392.85 176.78 390.32 180.32 C 388.58 182.97 385.74 184.63 382.74 185.49 C 382.77 184.72 382.81 183.95 382.84 183.18 C 379.46 178.66 376.09 174.12 372.56 169.71 C 376.39 166.20 381.71 162.82 381.83 157.02 C 381.58 152.98 379.00 149.53 376.60 146.45 C 373.69 142.73 368.64 139.76 363.88 141.68 C 357.00 144.31 351.72 149.72 345.79 153.90 C 354.80 165.53 363.46 177.42 372.45 189.07 C 364.81 191.67 357.20 194.40 349.56 197.00 C 346.92 192.00 343.06 187.84 339.76 183.29 C 335.87 177.96 331.85 172.73 327.85 167.48 C 324.45 169.82 321.17 172.33 318.00 174.98 C 324.59 183.70 331.33 192.29 337.76 201.13 C 335.44 201.95 333.12 202.76 330.80 203.58 C 328.77 200.97 326.78 198.35 324.81 195.71 C 320.64 198.68 316.53 201.75 312.54 204.95 C 313.53 206.24 314.53 207.53 315.52 208.82 C 314.33 209.27 313.15 209.74 311.97 210.21 L 311.80 209.97 C 309.59 206.34 306.71 203.18 304.47 199.59 C 303.43 198.09 303.97 195.30 306.03 195.09 C 308.77 194.05 310.17 197.19 311.77 198.75 C 315.20 196.44 318.48 193.91 321.64 191.24 C 318.79 188.04 315.73 184.04 311.03 183.91 C 303.84 183.54 296.82 188.31 293.61 194.59 C 290.95 201.65 295.22 209.01 299.63 214.35 C 293.61 216.42 287.64 218.62 281.60 220.62 C 280.37 219.57 279.15 218.51 277.93 217.45 C 281.25 213.83 286.10 211.81 289.15 208.02 C 287.71 205.35 285.68 203.07 283.83 200.70 C 276.91 205.92 269.65 210.74 263.11 216.41 C 263.65 219.72 267.09 222.30 269.15 225.02 C 267.62 225.52 266.10 226.03 264.57 226.51 C 260.52 222.18 254.35 223.54 249.67 225.96 C 254.56 219.06 257.08 210.23 255.35 201.84 C 257.89 199.65 260.54 197.59 263.26 195.62 C 253.99 183.13 244.64 170.70 235.16 158.38 C 231.88 160.82 228.62 163.28 225.41 165.80 C 228.57 169.90 231.53 174.14 234.78 178.17 C 231.08 176.97 227.16 177.17 223.40 176.60 C 220.27 175.08 216.72 174.14 213.31 175.30 C 207.34 177.34 201.75 181.86 200.09 188.16 C 197.75 190.02 195.43 191.90 192.98 193.60 C 192.48 193.13 191.50 192.19 191.00 191.72 C 185.76 195.85 179.77 199.19 175.33 204.23 C 173.17 198.52 170.94 192.82 169.24 186.96 C 171.46 186.71 170.30 185.72 168.75 185.41 C 166.92 181.38 165.70 177.10 163.98 173.03 C 169.96 170.84 175.99 168.76 182.04 166.78 C 182.52 166.75 183.49 166.68 183.97 166.65 C 185.61 168.69 187.12 170.83 188.66 172.95 C 191.85 170.60 195.00 168.21 198.14 165.79 C 197.24 164.57 196.34 163.35 195.45 162.13 C 216.35 155.05 237.15 147.62 258.11 140.75 C 256.64 142.29 255.01 143.67 253.34 144.99 C 262.62 157.37 272.07 169.62 281.25 182.07 C 284.42 179.63 287.64 177.23 290.85 174.84 C 287.17 170.03 283.45 165.25 279.91 160.34 C 283.82 157.09 289.25 153.65 289.13 147.92 C 288.68 141.73 283.96 137.01 279.49 133.20 C 281.14 132.67 282.79 132.12 284.45 131.60 C 291.71 142.10 299.69 152.10 307.33 162.33 C 314.79 157.11 321.85 151.33 329.21 145.97 C 327.29 143.31 325.51 140.48 323.10 138.22 C 318.88 140.77 315.21 144.10 311.21 146.95 C 309.38 144.56 307.56 142.17 305.72 139.79 C 308.87 137.40 312.02 135.02 315.19 132.65 C 313.22 129.94 311.18 127.28 309.07 124.67 C 306.01 126.97 302.96 129.28 299.89 131.56 C 298.71 130.26 297.54 128.96 296.37 127.66 L 296.20 127.47 C 302.47 125.36 308.73 123.21 314.98 121.06 C 318.44 126.39 322.31 131.53 327.02 135.83 C 329.75 138.28 333.49 140.41 337.27 139.32 C 342.77 137.72 347.66 133.61 349.41 128.05 C 350.12 128.14 351.54 128.33 352.24 128.43 C 353.90 127.27 355.56 126.12 357.23 124.97 C 353.64 120.04 349.78 115.31 346.30 110.30 Z" />
<path fill="#181617" opacity="1.00" d=" M 327.51 116.73 C 328.71 116.31 329.92 115.90 331.14 115.49 L 331.20 115.57 C 332.21 117.11 333.24 118.65 334.27 120.19 C 335.24 119.71 336.21 119.24 337.18 118.77 C 338.58 120.76 340.26 122.64 341.00 125.00 C 340.54 127.04 337.58 129.23 335.85 127.21 C 332.64 124.09 330.42 120.12 327.51 116.73 Z" />
<path fill="#181617" opacity="1.00" d=" M 82.58 126.06 C 84.15 125.32 85.68 124.19 87.50 124.29 C 89.67 125.96 91.81 128.23 92.22 131.04 C 92.40 133.01 90.56 134.08 89.37 135.30 C 87.14 132.19 84.74 129.21 82.58 126.06 Z" />
<path fill="#181617" opacity="1.00" d=" M 267.73 144.19 C 269.05 143.55 270.34 142.79 271.76 142.35 C 274.69 143.13 276.41 146.12 277.45 148.75 C 278.02 150.87 275.93 152.31 274.45 153.39 C 272.27 150.28 269.91 147.30 267.73 144.19 Z" />
<path fill="#181617" opacity="1.00" d=" M 360.50 153.21 C 364.86 148.99 370.73 154.95 369.92 159.72 C 369.13 160.71 368.20 161.57 367.30 162.45 C 364.98 159.41 362.57 156.43 360.50 153.21 Z" />
<path fill="#181617" opacity="1.00" d=" M 215.86 196.28 C 219.19 193.27 223.71 192.08 228.12 192.63 C 225.07 192.82 222.25 194.00 219.70 195.63 C 221.44 198.02 223.22 200.38 225.06 202.71 C 225.98 202.16 226.90 201.61 227.82 201.07 C 229.15 202.99 230.63 204.85 231.50 207.05 C 231.38 209.36 228.45 211.50 226.47 209.72 C 222.47 205.63 219.63 200.57 215.86 196.28 Z" />
<path fill="#181617" opacity="1.00" d=" M 69.58 222.85 C 70.65 220.99 71.71 219.12 72.78 217.27 C 73.84 219.09 75.20 220.86 75.53 223.01 C 75.06 224.59 73.64 225.62 72.64 226.85 C 71.62 225.52 70.60 224.18 69.58 222.85 Z" />
<path fill="#181617" opacity="1.00" d=" M 272.13 241.71 C 273.60 245.41 275.05 250.06 272.57 253.66 C 271.05 255.67 268.35 255.96 266.07 256.47 C 265.14 254.85 264.20 253.23 263.25 251.62 C 266.84 248.98 270.59 246.08 272.13 241.71 Z" />
<path fill="#181617" opacity="1.00" d=" M 343.60 244.79 C 345.23 244.06 346.86 242.38 348.78 243.20 C 350.71 244.71 352.43 246.71 353.20 249.08 C 353.76 251.31 351.76 252.69 350.40 254.04 C 348.24 250.88 345.90 247.85 343.60 244.79 Z" />
<path fill="#181617" opacity="1.00" d=" M 226.57 255.28 C 232.09 253.68 237.54 251.81 242.95 249.87 C 243.84 254.99 247.73 260.58 244.56 265.57 C 242.07 270.02 235.20 271.04 231.60 267.38 C 228.35 264.21 228.00 259.37 226.57 255.28 Z" />
<path fill="#181617" opacity="1.00" d=" M 204.03 266.56 C 205.67 263.87 207.59 260.96 211.03 260.59 C 212.21 264.93 215.21 269.55 213.10 274.09 C 211.71 277.71 207.95 279.65 204.30 280.19 C 206.77 277.87 209.48 275.84 212.25 273.89 C 209.99 270.96 207.41 268.20 204.03 266.56 Z" />
<path fill="#181617" opacity="1.00" d=" M 205.26 295.82 C 207.83 295.64 210.39 295.28 212.89 294.63 C 213.42 296.53 215.70 298.91 213.74 300.66 C 212.86 301.44 211.58 302.24 210.37 301.77 C 208.29 300.14 206.84 297.89 205.26 295.82 Z" />
<path fill="#181617" opacity="1.00" d=" M 48.95 309.13 C 50.30 308.36 51.65 307.59 52.99 306.82 C 55.97 308.56 58.04 311.36 59.08 314.63 C 58.13 315.87 57.28 317.24 55.97 318.12 C 53.27 315.42 51.27 312.14 48.95 309.13 Z" />
<path fill="#181617" opacity="1.00" d=" M 238.17 325.40 C 241.02 325.99 242.60 328.85 243.74 331.28 C 244.68 333.30 242.34 334.86 241.53 336.47 C 238.63 333.69 236.54 330.25 234.04 327.15 C 235.40 326.53 236.72 325.79 238.17 325.40 Z" />
<path fill="#181617" opacity="1.00" d=" M 326.71 336.11 C 328.30 335.49 329.85 334.57 331.59 334.40 C 334.01 335.94 335.91 338.45 336.56 341.27 C 336.61 343.15 334.85 344.35 333.47 345.33 C 331.29 342.20 328.89 339.24 326.71 336.11 Z" />
<path fill="#181617" opacity="1.00" d=" M 197.33 376.55 C 198.58 376.91 200.17 376.82 200.92 378.11 C 201.96 380.62 201.39 383.37 200.96 385.95 C 199.76 386.29 198.56 386.61 197.36 386.92 C 197.28 383.46 197.29 380.00 197.33 376.55 Z" />
<path fill="#181617" opacity="1.00" d=" M 249.74 376.67 C 251.24 376.88 253.14 376.61 253.84 378.35 C 254.66 381.67 254.59 387.14 249.81 386.82 C 249.79 383.43 249.81 380.05 249.74 376.67 Z" />
<path fill="#181617" opacity="1.00" d=" M 97.88 396.02 C 98.79 389.99 99.04 383.87 100.25 377.89 C 100.87 383.93 101.49 389.96 102.13 396.00 C 100.71 396.01 99.29 396.01 97.88 396.02 Z" />
<path fill="#181617" opacity="1.00" d=" M 331.54 377.75 C 332.07 383.84 332.67 389.93 333.36 396.01 C 331.89 396.00 330.42 396.00 328.96 396.00 C 330.13 389.96 330.27 383.77 331.54 377.75 Z" />
</g>
<g id="F565656ff">
<path fill="#565656" opacity="1.00" d=" M 249.21 2.47 C 252.15 2.64 255.10 2.66 258.05 2.65 C 256.40 4.25 254.58 5.67 252.60 6.83 C 251.49 5.36 250.36 3.91 249.21 2.47 Z" />
<path fill="#565656" opacity="1.00" d=" M 18.37 6.72 C 20.42 5.21 22.24 2.78 25.01 2.74 C 29.63 2.60 34.26 2.62 38.87 2.81 C 37.43 4.23 35.84 5.47 34.13 6.56 C 35.46 8.81 36.95 10.98 38.54 13.06 C 41.92 10.90 44.94 8.24 48.26 6.00 C 50.22 8.70 52.23 11.38 54.16 14.10 C 50.95 16.34 47.81 18.69 44.74 21.12 C 46.45 23.58 48.29 25.95 50.20 28.25 C 54.26 25.38 58.13 22.24 62.15 19.32 C 64.19 21.92 66.20 24.53 68.24 27.11 C 61.14 32.85 53.67 38.11 46.46 43.71 C 36.96 31.49 27.78 19.01 18.37 6.72 Z" />
<path fill="#565656" opacity="1.00" d=" M 54.25 2.75 C 59.49 2.83 64.75 2.40 69.96 2.90 C 71.84 4.76 73.12 7.18 75.18 8.88 C 77.04 9.87 78.97 8.57 79.85 6.92 C 79.89 5.40 78.95 4.08 78.51 2.68 C 83.61 2.77 88.71 2.54 93.80 2.84 C 94.59 4.07 95.38 5.29 96.18 6.51 C 93.76 7.98 91.38 10.79 88.30 9.36 C 86.72 15.09 81.64 19.27 76.02 20.75 C 71.44 21.94 67.34 18.66 64.28 15.67 C 60.59 11.66 57.10 7.41 54.25 2.75 Z" />
<path fill="#565656" opacity="1.00" d=" M 125.95 4.16 C 128.35 2.11 131.91 2.28 134.77 3.07 C 136.07 4.33 136.95 5.94 137.94 7.45 C 134.15 9.99 130.69 12.96 126.86 15.43 C 127.86 17.93 129.52 20.06 131.19 22.15 C 134.43 19.91 137.58 17.55 140.57 14.97 C 142.73 17.56 144.77 20.24 146.75 22.96 C 143.67 25.53 140.37 27.81 137.19 30.26 C 139.06 32.63 140.93 34.99 142.85 37.32 C 146.84 34.33 150.84 31.33 154.75 28.22 C 156.81 30.90 158.83 33.61 160.81 36.35 C 153.55 41.85 146.25 47.27 139.05 52.85 C 129.56 40.44 120.14 27.97 110.86 15.40 C 116.12 11.96 120.95 7.94 125.95 4.16 Z" />
<path fill="#565656" opacity="1.00" d=" M 141.76 2.74 C 146.47 2.63 151.18 2.68 155.89 2.82 C 159.62 7.54 162.99 12.55 166.88 17.15 C 168.61 19.51 171.92 18.11 172.63 15.62 C 172.02 13.05 170.10 11.06 168.69 8.90 C 167.93 9.56 167.17 10.23 166.41 10.90 C 164.26 8.52 162.09 6.08 160.81 3.09 C 167.06 2.41 173.40 2.60 179.67 2.95 C 182.52 7.28 185.99 11.14 188.78 15.51 C 187.10 16.64 185.44 17.79 183.80 18.96 C 183.10 18.86 181.72 18.65 181.03 18.55 C 179.08 24.28 173.88 28.50 168.10 29.93 C 162.72 30.69 158.49 26.48 155.18 22.83 C 150.02 16.65 144.80 10.28 141.76 2.74 Z" />
<path fill="#565656" opacity="1.00" d=" M 188.45 2.78 C 193.78 2.74 199.11 2.59 204.43 2.86 C 201.67 6.26 197.76 8.37 194.38 11.06 C 192.42 8.29 190.34 5.60 188.45 2.78 Z" />
<path fill="#565656" opacity="1.00" d=" M 234.14 2.88 C 238.18 2.59 242.22 2.64 246.26 2.72 C 245.57 4.21 244.24 6.03 245.46 7.62 C 249.12 13.13 253.37 18.22 257.28 23.56 C 258.60 25.06 259.69 27.33 261.97 27.42 C 264.00 27.45 265.63 25.12 264.81 23.23 C 263.90 21.46 262.63 19.92 261.48 18.31 C 260.51 18.76 259.53 19.20 258.57 19.65 C 256.85 17.42 255.14 15.18 253.48 12.91 C 257.69 9.94 261.58 6.53 265.92 3.74 C 270.86 10.63 276.21 17.23 281.12 24.13 C 279.42 26.44 276.49 28.71 273.46 27.50 C 271.91 33.31 266.65 37.49 260.98 38.91 C 255.89 39.80 251.58 36.12 248.41 32.61 C 243.22 26.30 237.66 20.01 234.67 12.29 C 233.44 9.29 233.83 6.01 234.14 2.88 Z" />
<path fill="#565656" opacity="1.00" d=" M 274.20 2.71 C 279.32 2.99 284.61 2.12 289.61 3.09 C 292.27 6.14 294.45 9.56 297.04 12.67 C 293.58 15.03 290.39 17.74 287.00 20.18 C 282.93 14.22 278.09 8.81 274.20 2.71 Z" />
<path fill="#565656" opacity="1.00" d=" M 326.36 17.02 C 325.72 10.67 330.97 5.62 336.18 2.96 C 340.09 2.46 344.07 2.65 348.01 2.72 C 351.60 2.54 353.28 6.29 355.21 8.68 C 351.93 11.10 348.61 13.47 345.39 15.96 C 344.30 14.58 343.38 13.00 341.86 12.05 C 339.21 11.02 336.02 14.43 338.20 16.76 C 342.81 23.64 348.23 29.97 353.05 36.73 C 354.76 36.17 357.21 36.24 357.62 34.01 C 357.72 31.25 355.25 29.26 353.79 27.15 C 352.94 27.72 352.09 28.29 351.25 28.86 C 349.49 26.60 347.80 24.29 346.19 21.92 C 350.31 18.84 354.26 15.52 358.60 12.74 C 362.31 17.97 366.12 23.14 370.10 28.17 C 370.37 24.35 370.47 20.52 370.63 16.69 C 370.82 20.74 371.00 24.81 370.75 28.86 C 370.49 31.61 370.12 34.34 369.94 37.10 C 368.72 36.90 367.52 36.70 366.32 36.50 C 365.18 39.00 363.86 41.43 362.41 43.76 C 355.94 36.87 345.65 34.29 336.59 36.70 C 332.55 30.55 327.15 24.65 326.36 17.02 Z" />
<path fill="#565656" opacity="1.00" d=" M 359.78 2.76 C 364.81 2.77 369.87 2.43 374.90 2.87 C 377.35 4.73 378.78 7.57 380.52 10.05 C 375.72 10.32 370.91 10.71 366.10 10.56 C 363.59 8.31 361.81 5.41 359.78 2.76 Z" />
<path fill="#565656" opacity="1.00" d=" M 403.61 2.73 C 407.17 2.64 410.73 2.60 414.28 2.80 C 412.24 4.88 409.86 6.58 407.45 8.20 C 406.14 6.39 404.86 4.57 403.61 2.73 Z" />
<path fill="#565656" opacity="1.00" d=" M 203.61 24.40 C 210.88 19.41 217.57 13.63 224.91 8.73 C 226.78 11.19 228.66 13.66 230.52 16.12 C 226.99 19.40 222.78 21.81 219.24 25.07 C 220.75 27.15 222.30 29.20 223.91 31.20 C 227.10 28.81 230.23 26.34 233.53 24.09 C 235.41 26.80 237.39 29.46 239.34 32.12 C 236.22 34.56 233.04 36.91 229.87 39.28 C 231.72 41.61 233.51 43.98 235.27 46.37 C 239.37 43.50 243.36 40.46 247.34 37.43 C 249.48 40.03 251.53 42.70 253.32 45.55 C 245.91 50.85 238.93 56.75 231.36 61.83 C 222.45 49.10 212.39 37.20 203.61 24.40 Z" />
<path fill="#565656" opacity="1.00" d=" M 381.50 10.97 C 382.33 12.30 383.29 13.54 384.35 14.71 C 384.39 18.33 384.34 21.95 384.36 25.57 C 382.77 26.81 381.16 28.03 379.50 29.18 C 377.97 26.92 376.40 24.69 374.77 22.50 C 374.76 19.79 374.80 17.09 374.87 14.39 C 377.13 14.45 379.40 14.51 381.67 14.57 C 381.63 13.67 381.54 11.87 381.50 10.97 Z" />
<path fill="#565656" opacity="1.00" d=" M 3.99 17.16 C 8.01 14.27 13.60 11.99 18.29 14.74 C 22.80 17.45 25.94 22.14 27.82 26.97 C 29.74 33.47 23.72 38.47 18.83 41.51 C 22.36 46.54 26.23 51.33 29.84 56.30 C 26.61 58.57 23.56 61.10 20.28 63.32 C 14.96 56.11 9.24 49.17 4.19 41.79 C 3.70 33.60 4.16 25.37 3.99 17.16 M 6.80 25.30 C 8.77 28.70 11.35 31.68 13.58 34.90 C 14.74 33.55 16.71 32.31 16.58 30.35 C 15.73 27.87 14.18 25.53 12.02 24.00 C 10.17 23.71 8.48 24.71 6.80 25.30 Z" />
<path fill="#565656" opacity="1.00" d=" M 404.63 18.31 C 404.87 17.71 405.13 17.11 405.40 16.51 C 405.30 23.01 405.32 29.50 405.17 36.00 C 406.58 35.99 408.00 35.99 409.41 35.98 C 409.36 32.88 409.34 29.78 409.37 26.68 C 412.00 28.84 413.81 31.74 415.83 34.42 C 412.03 37.30 408.16 40.10 404.45 43.10 C 405.96 45.15 407.49 47.19 409.03 49.23 C 412.06 47.14 414.98 44.88 417.98 42.75 C 418.01 46.84 418.00 50.94 417.98 55.03 C 417.08 55.85 416.19 56.67 415.31 57.50 C 416.43 59.19 418.25 60.76 417.98 63.00 C 417.98 68.75 418.16 74.52 417.76 80.26 C 416.79 79.57 415.80 78.87 415.14 77.87 C 406.45 66.15 397.47 54.64 388.87 42.87 C 391.54 40.22 394.84 38.33 397.78 35.99 C 398.02 35.82 398.50 35.48 398.74 35.32 C 400.84 33.80 402.90 32.24 404.99 30.70 C 405.15 26.57 405.21 22.42 404.63 18.31 Z" />
<path fill="#565656" opacity="1.00" d=" M 296.20 33.51 C 303.46 28.44 310.23 22.70 317.59 17.79 C 319.48 20.36 321.40 22.91 323.22 25.52 C 319.43 28.27 315.51 30.87 311.98 33.95 C 313.26 36.16 314.87 38.16 316.39 40.22 C 319.71 38.05 322.85 35.62 325.87 33.05 C 327.83 34.86 328.83 39.24 332.13 38.22 C 323.52 41.07 314.99 44.15 306.39 47.04 C 302.88 42.63 299.24 38.28 296.20 33.51 Z" />
<path fill="#565656" opacity="1.00" d=" M 98.84 24.85 C 102.82 22.25 108.52 21.36 112.34 24.75 C 116.29 28.21 120.01 32.70 120.80 38.04 C 121.16 44.02 115.52 47.47 111.56 50.89 C 115.01 55.65 118.72 60.22 122.12 65.02 C 119.69 68.10 115.98 69.91 112.92 72.33 C 103.43 60.06 94.19 47.58 84.84 35.20 C 89.57 31.84 93.96 28.00 98.84 24.85 M 99.81 34.90 C 101.60 38.11 104.13 40.81 106.21 43.81 C 107.15 42.91 108.28 42.15 108.96 41.02 C 109.61 37.73 106.91 35.10 104.68 33.12 C 103.04 32.87 100.45 33.17 99.81 34.90 Z" />
<path fill="#565656" opacity="1.00" d=" M 191.13 34.12 C 194.80 31.57 200.07 30.51 203.99 33.10 C 207.41 35.34 209.92 38.74 211.86 42.28 C 213.49 45.21 214.03 49.03 212.23 52.00 C 210.18 55.27 206.92 57.46 204.13 60.03 C 207.73 64.86 211.58 69.50 214.98 74.48 C 211.73 76.76 208.64 79.29 205.14 81.19 C 196.19 68.66 186.45 56.72 177.54 44.16 C 182.10 40.85 186.45 37.26 191.13 34.12 M 191.97 43.43 C 194.02 46.85 196.61 49.90 199.06 53.04 C 200.02 51.60 201.93 50.32 201.70 48.38 C 200.94 46.11 199.57 43.97 197.67 42.51 C 195.82 41.10 193.79 42.93 191.97 43.43 Z" />
<path fill="#565656" opacity="1.00" d=" M 269.91 53.36 C 276.61 49.15 282.08 42.41 290.10 40.70 C 295.72 39.74 299.61 44.48 302.81 48.30 C 298.53 49.76 294.25 51.24 289.97 52.72 C 290.10 52.21 290.38 51.19 290.52 50.68 C 287.96 51.04 285.16 51.63 284.44 54.53 C 281.01 55.89 277.51 57.05 274.02 58.21 C 272.61 56.62 271.25 55.00 269.91 53.36 Z" />
<path fill="#565656" opacity="1.00" d=" M 56.90 56.21 C 60.19 53.72 63.49 51.25 66.81 48.82 C 76.29 61.06 85.40 73.58 94.81 85.87 C 91.68 88.54 88.41 91.04 84.99 93.33 C 75.57 81.00 66.35 68.52 56.90 56.21 Z" />
<path fill="#565656" opacity="1.00" d=" M 369.93 57.44 C 373.74 53.67 378.44 49.93 384.04 49.72 C 389.06 49.63 392.65 53.77 395.33 57.51 C 397.67 60.70 399.60 64.99 397.96 68.91 C 396.39 73.03 392.43 75.37 389.26 78.13 C 393.02 82.87 396.65 87.72 400.22 92.60 C 397.01 94.81 393.89 97.15 390.79 99.51 C 387.10 95.01 383.81 90.20 380.24 85.61 L 379.80 87.02 C 379.67 86.45 379.39 85.29 379.26 84.72 C 379.24 84.66 379.22 84.56 379.21 84.50 L 379.15 84.37 C 375.69 75.54 373.01 66.42 369.93 57.44 M 377.22 61.93 C 379.60 65.10 381.86 68.37 384.59 71.26 C 385.43 69.90 386.69 68.69 387.02 67.07 C 386.46 64.44 384.75 62.04 382.62 60.43 C 380.73 59.06 378.81 61.10 377.22 61.93 Z" />
<path fill="#565656" opacity="1.00" d=" M 316.48 59.46 C 325.43 56.48 334.21 52.74 343.42 50.63 C 344.27 51.97 345.14 53.31 346.02 54.65 C 338.70 59.94 331.49 65.39 324.35 70.91 C 321.48 67.28 317.96 63.94 316.48 59.46 Z" />
<path fill="#565656" opacity="1.00" d=" M 149.66 65.21 C 152.95 62.76 156.16 60.17 159.59 57.90 C 167.42 68.48 175.41 78.95 183.26 89.53 C 179.22 90.94 175.17 92.31 171.14 93.72 C 163.87 84.30 156.66 74.83 149.66 65.21 Z" />
<path fill="#565656" opacity="1.00" d=" M 40.60 67.73 C 44.20 65.44 48.86 64.31 52.97 65.90 C 56.34 67.05 58.54 70.04 60.51 72.83 C 57.35 75.33 54.15 77.79 50.90 80.17 C 49.26 78.57 47.39 74.67 44.70 76.69 C 42.68 77.40 42.34 79.82 43.67 81.37 C 47.85 87.13 52.27 92.73 56.48 98.48 C 57.42 100.03 59.11 100.68 60.76 101.21 C 61.68 99.96 63.43 98.85 62.97 97.04 C 62.21 95.18 61.01 93.51 59.60 92.08 C 58.47 91.79 57.42 92.65 56.35 92.90 C 54.83 90.71 53.23 88.59 51.53 86.55 C 55.30 83.01 59.65 80.17 63.73 77.01 C 69.02 83.84 74.17 90.76 79.29 97.70 C 77.84 98.83 76.40 99.96 74.97 101.09 C 73.80 101.06 72.64 101.04 71.48 101.03 C 69.77 106.32 65.26 110.30 60.03 111.94 C 56.45 113.11 52.52 111.73 49.83 109.27 C 44.80 104.85 40.96 99.29 37.01 93.93 C 33.78 89.01 30.48 83.14 32.15 77.05 C 33.57 72.96 37.04 69.98 40.60 67.73 Z" />
<path fill="#565656" opacity="1.00" d=" M 283.56 70.78 C 289.42 68.80 295.17 66.45 301.19 64.98 C 299.69 66.30 298.25 67.69 296.80 69.05 C 300.43 73.85 304.02 78.67 307.69 83.43 C 303.68 84.87 299.63 86.22 295.61 87.66 C 291.96 81.77 287.20 76.68 283.56 70.78 Z" />
<path fill="#565656" opacity="1.00" d=" M 132.43 77.21 C 136.14 75.03 140.77 73.18 145.03 74.81 C 148.68 75.90 151.06 79.07 153.17 82.03 C 149.89 84.37 146.73 86.87 143.47 89.24 C 141.82 87.77 140.67 84.70 138.03 85.20 C 136.13 85.68 134.85 88.03 135.94 89.80 C 138.92 94.63 142.81 98.84 145.92 103.59 C 142.42 106.30 139.40 109.70 137.55 113.75 C 132.59 106.60 126.02 99.94 124.40 91.07 C 123.37 85.21 127.89 80.20 132.43 77.21 Z" />
<path fill="#565656" opacity="1.00" d=" M 248.84 82.78 C 252.80 81.35 256.79 80.00 260.78 78.65 C 263.94 82.71 267.02 86.84 270.23 90.86 C 271.37 92.23 272.19 93.81 272.62 95.54 C 268.95 97.03 265.19 98.31 261.36 99.33 C 256.87 94.06 252.75 88.49 248.84 82.78 Z" />
<path fill="#565656" opacity="1.00" d=" M 3.92 96.24 C 10.18 91.42 16.41 86.56 22.84 81.98 C 24.72 84.45 26.60 86.91 28.50 89.36 C 24.97 92.62 21.00 95.35 17.18 98.25 C 18.70 100.30 19.93 102.68 22.02 104.22 C 25.39 102.27 28.17 99.47 31.57 97.55 C 33.47 100.23 35.44 102.86 37.28 105.58 C 34.13 107.87 31.08 110.29 27.87 112.50 C 29.66 115.00 31.50 117.46 33.36 119.92 C 37.38 116.81 41.30 113.53 45.55 110.73 C 47.27 113.54 49.70 115.88 51.16 118.85 C 43.96 124.34 36.77 129.86 29.43 135.17 C 21.42 124.35 13.23 113.65 5.15 102.89 C 3.51 101.05 4.07 98.48 3.92 96.24 Z" />
<path fill="#565656" opacity="1.00" d=" M 217.45 93.38 C 225.48 90.96 233.37 88.06 241.29 85.27 C 242.78 87.15 244.27 89.04 245.75 90.95 C 242.61 93.44 239.41 95.85 236.15 98.17 C 234.59 96.69 233.26 94.66 231.05 94.13 C 229.63 94.74 227.48 96.05 228.14 97.87 C 229.99 101.78 233.04 104.95 235.61 108.39 L 235.71 108.52 C 231.68 109.66 227.81 111.34 223.78 112.49 C 217.94 108.49 216.20 100.31 217.42 93.63 L 217.45 93.38 Z" />
<path fill="#565656" opacity="1.00" d=" M 143.98 95.29 C 148.22 92.30 152.22 88.98 156.54 86.09 C 158.80 89.57 161.61 92.67 163.66 96.29 C 158.80 98.08 153.76 99.42 149.07 101.64 C 147.29 99.59 145.60 97.47 143.98 95.29 Z" />
<path fill="#565656" opacity="1.00" d=" M 115.39 91.10 C 117.37 93.59 119.32 96.12 121.21 98.68 C 117.40 101.57 113.56 104.42 109.78 107.34 C 111.26 109.38 112.77 111.41 114.27 113.44 C 117.68 111.41 120.71 108.84 123.92 106.53 C 125.99 109.19 128.03 111.87 130.06 114.56 C 126.96 116.87 123.87 119.21 120.68 121.40 C 122.15 124.07 124.03 126.47 126.03 128.76 C 128.96 126.69 131.55 124.01 135.00 122.80 C 134.96 125.13 135.04 127.47 135.11 129.80 C 128.36 130.70 121.73 132.48 115.54 135.33 C 108.19 126.06 101.31 116.43 94.03 107.10 C 101.14 101.74 108.19 96.32 115.39 91.10 Z" />
<path fill="#565656" opacity="1.00" d=" M 236.72 104.33 C 240.80 101.30 244.88 98.24 248.88 95.10 C 250.68 97.36 252.39 99.68 253.99 102.08 C 248.96 103.80 243.95 105.58 238.92 107.28 C 238.18 106.30 237.45 105.31 236.72 104.33 Z" />
<path fill="#565656" opacity="1.00" d=" M 186.77 116.15 C 193.67 110.62 200.91 105.54 207.89 100.10 C 209.91 102.58 211.86 105.12 213.74 107.71 C 209.93 110.63 206.10 113.52 202.35 116.52 C 202.99 117.45 203.62 118.38 204.26 119.32 C 200.32 120.64 196.44 122.20 192.41 123.26 C 190.31 121.07 188.51 118.63 186.77 116.15 Z" />
<path fill="#565656" opacity="1.00" d=" M 403.02 112.15 C 405.80 106.42 411.80 102.54 417.99 101.46 C 418.00 105.02 418.00 108.57 417.99 112.13 C 415.90 112.53 413.98 113.44 412.70 115.21 C 414.18 117.97 416.45 120.27 417.78 123.10 C 418.26 129.82 417.92 136.59 417.93 143.34 C 413.37 138.44 409.26 133.08 405.72 127.41 C 403.23 122.87 400.59 117.27 403.02 112.15 Z" />
<path fill="#565656" opacity="1.00" d=" M 353.55 107.83 C 357.50 106.48 361.41 105.01 365.40 103.77 C 366.88 105.72 368.45 107.61 370.26 109.27 L 370.65 109.66 C 371.05 110.98 371.46 112.30 371.89 113.61 C 368.99 116.03 365.99 118.31 362.92 120.50 C 359.65 116.38 356.39 112.25 353.55 107.83 Z" />
<path fill="#565656" opacity="1.00" d=" M 4.05 107.85 C 7.28 111.67 11.08 115.77 11.34 121.03 C 11.22 125.62 7.64 129.15 4.06 131.56 C 3.96 123.66 3.97 115.75 4.05 107.85 Z" />
<path fill="#565656" opacity="1.00" d=" M 331.20 115.57 C 336.16 113.62 341.27 112.06 346.30 110.30 C 349.78 115.31 353.64 120.04 357.23 124.97 C 355.56 126.12 353.90 127.27 352.24 128.43 C 351.54 128.33 350.12 128.14 349.41 128.05 C 347.66 133.61 342.77 137.72 337.27 139.32 C 333.49 140.41 329.75 138.28 327.02 135.83 C 322.31 131.53 318.44 126.39 314.98 121.06 C 319.16 119.62 323.33 118.18 327.51 116.73 C 330.42 120.12 332.64 124.09 335.85 127.21 C 337.58 129.23 340.54 127.04 341.00 125.00 C 340.26 122.64 338.58 120.76 337.18 118.77 C 336.21 119.24 335.24 119.71 334.27 120.19 C 333.24 118.65 332.21 117.11 331.20 115.57 Z" />
<path fill="#565656" opacity="1.00" d=" M 150.53 121.17 C 152.47 116.16 157.58 113.50 162.65 112.77 C 160.53 117.55 155.63 120.60 150.53 121.17 Z" />
<path fill="#565656" opacity="1.00" d=" M 86.34 114.40 C 91.38 112.62 96.33 116.01 99.27 119.87 C 101.84 123.32 104.77 127.42 103.84 131.97 C 102.48 136.49 98.34 139.31 94.84 142.13 C 95.82 143.78 96.81 145.44 97.78 147.10 C 95.00 149.68 92.45 152.51 90.12 155.50 C 86.63 151.77 83.77 147.54 80.69 143.48 C 76.55 137.76 71.97 132.35 68.03 126.48 C 74.27 122.65 79.30 116.80 86.34 114.40 M 82.58 126.06 C 84.74 129.21 87.14 132.19 89.37 135.30 C 90.56 134.08 92.40 133.01 92.22 131.04 C 91.81 128.23 89.67 125.96 87.50 124.29 C 85.68 124.19 84.15 125.32 82.58 126.06 Z" />
<path fill="#565656" opacity="1.00" d=" M 390.91 120.35 C 391.47 119.84 392.59 118.80 393.15 118.28 C 395.10 120.78 397.05 123.29 399.07 125.73 C 397.51 127.16 395.78 128.38 393.89 129.33 C 392.87 126.35 391.89 123.35 390.91 120.35 Z" />
<path fill="#565656" opacity="1.00" d=" M 167.56 131.36 C 172.27 125.86 180.42 120.21 187.58 124.77 C 181.01 127.25 174.34 129.53 167.56 131.36 Z" />
<path fill="#565656" opacity="1.00" d=" M 299.89 131.56 C 302.96 129.28 306.01 126.97 309.07 124.67 C 311.18 127.28 313.22 129.94 315.19 132.65 C 312.02 135.02 308.87 137.40 305.72 139.79 C 307.56 142.17 309.38 144.56 311.21 146.95 C 315.21 144.10 318.88 140.77 323.10 138.22 C 325.51 140.48 327.29 143.31 329.21 145.97 C 321.85 151.33 314.79 157.11 307.33 162.33 C 299.69 152.10 291.71 142.10 284.45 131.60 C 288.39 130.19 292.30 128.66 296.37 127.66 C 297.54 128.96 298.71 130.26 299.89 131.56 Z" />
<path fill="#565656" opacity="1.00" d=" M 377.42 129.59 L 377.75 129.25 C 379.18 136.15 382.66 142.45 384.04 149.36 C 379.40 144.84 375.87 139.37 371.93 134.26 C 373.88 132.85 375.76 131.34 377.42 129.59 Z" />
<path fill="#565656" opacity="1.00" d=" M 258.55 140.31 C 265.61 138.18 272.52 135.59 279.49 133.20 C 283.96 137.01 288.68 141.73 289.13 147.92 C 289.25 153.65 283.82 157.09 279.91 160.34 C 283.45 165.25 287.17 170.03 290.85 174.84 C 287.64 177.23 284.42 179.63 281.25 182.07 C 272.07 169.62 262.62 157.37 253.34 144.99 C 255.01 143.67 256.64 142.29 258.11 140.75 L 258.55 140.31 M 267.73 144.19 C 269.91 147.30 272.27 150.28 274.45 153.39 C 275.93 152.31 278.02 150.87 277.45 148.75 C 276.41 146.12 274.69 143.13 271.76 142.35 C 270.34 142.79 269.05 143.55 267.73 144.19 Z" />
<path fill="#565656" opacity="1.00" d=" M 396.65 137.58 C 398.35 136.28 400.07 135.00 401.82 133.76 C 403.79 136.44 405.80 139.08 407.91 141.65 C 405.31 143.65 402.68 145.62 399.86 147.29 C 398.78 144.06 397.70 140.82 396.65 137.58 Z" />
<path fill="#565656" opacity="1.00" d=" M 4.04 135.80 C 7.05 139.71 9.92 143.73 13.04 147.55 C 10.17 149.98 7.16 152.25 4.02 154.33 C 4.00 148.15 3.97 141.97 4.04 135.80 Z" />
<path fill="#565656" opacity="1.00" d=" M 40.22 147.50 C 43.52 145.20 46.69 142.72 49.92 140.33 C 59.36 152.17 68.16 164.52 77.43 176.50 C 76.80 177.59 76.16 178.68 75.50 179.76 C 72.95 181.25 70.54 182.96 68.28 184.86 C 58.89 172.43 49.35 160.12 40.22 147.50 Z" />
<path fill="#565656" opacity="1.00" d=" M 363.88 141.68 C 368.64 139.76 373.69 142.73 376.60 146.45 C 379.00 149.53 381.58 152.98 381.83 157.02 C 381.71 162.82 376.39 166.20 372.56 169.71 C 376.09 174.12 379.46 178.66 382.84 183.18 C 382.81 183.95 382.77 184.72 382.74 185.49 L 382.73 185.75 C 379.22 186.57 375.85 187.88 372.45 189.07 C 363.46 177.42 354.80 165.53 345.79 153.90 C 351.72 149.72 357.00 144.31 363.88 141.68 M 360.50 153.21 C 362.57 156.43 364.98 159.41 367.30 162.45 C 368.20 161.57 369.13 160.71 369.92 159.72 C 370.73 154.95 364.86 148.99 360.50 153.21 Z" />
<path fill="#565656" opacity="1.00" d=" M 403.01 156.52 C 407.31 153.44 411.53 150.24 415.69 146.97 C 416.44 147.77 417.19 148.57 417.95 149.38 C 417.99 152.18 418.00 154.99 418.00 157.79 C 414.13 160.82 410.13 163.69 406.32 166.79 C 405.27 163.35 404.06 159.96 403.01 156.52 Z" />
<path fill="#565656" opacity="1.00" d=" M 141.57 149.21 C 144.58 159.11 148.24 168.81 151.18 178.73 C 151.05 179.14 150.80 179.97 150.67 180.38 C 144.65 172.56 138.82 164.60 132.77 156.80 C 135.58 154.12 139.41 152.51 141.57 149.21 Z" />
<path fill="#565656" opacity="1.00" d=" M 23.47 159.38 C 27.09 156.95 31.72 155.95 35.95 157.23 C 39.32 158.60 41.72 161.49 43.71 164.42 C 40.46 166.74 37.30 169.18 34.12 171.59 C 33.02 170.40 32.00 169.13 30.74 168.10 C 28.31 166.41 24.49 169.95 26.61 172.38 C 31.06 178.57 35.63 184.70 40.32 190.71 C 41.69 192.94 44.38 191.87 46.22 190.98 C 46.48 187.77 44.30 185.35 42.59 182.91 C 41.70 183.43 40.81 183.96 39.93 184.49 C 37.97 182.31 36.23 179.95 34.72 177.45 C 38.97 174.71 42.90 171.52 46.85 168.37 C 52.03 175.20 57.32 181.98 62.22 189.01 C 61.11 190.69 59.19 191.62 57.66 192.86 C 56.64 192.65 55.63 192.43 54.61 192.22 C 53.39 197.83 48.37 201.46 43.31 203.45 C 39.77 204.79 35.95 203.15 33.24 200.83 C 28.54 196.85 24.88 191.82 21.25 186.88 C 18.26 182.40 14.99 177.57 14.92 171.98 C 14.74 166.45 19.03 162.03 23.47 159.38 Z" />
<path fill="#565656" opacity="1.00" d=" M 225.41 165.80 C 228.62 163.28 231.88 160.82 235.16 158.38 C 244.64 170.70 253.99 183.13 263.26 195.62 C 260.54 197.59 257.89 199.65 255.35 201.84 C 253.45 190.91 245.15 181.82 234.78 178.17 C 231.53 174.14 228.57 169.90 225.41 165.80 Z" />
<path fill="#565656" opacity="1.00" d=" M 182.04 166.78 C 186.48 165.14 190.98 163.68 195.45 162.13 C 196.34 163.35 197.24 164.57 198.14 165.79 C 195.00 168.21 191.85 170.60 188.66 172.95 C 187.12 170.83 185.61 168.69 183.97 166.65 C 183.49 166.68 182.52 166.75 182.04 166.78 Z" />
<path fill="#565656" opacity="1.00" d=" M 109.80 173.93 C 113.70 169.15 119.59 165.39 125.96 165.75 C 130.48 166.04 133.73 169.69 136.21 173.12 C 133.41 176.12 129.79 178.22 126.53 180.67 C 125.14 179.26 124.26 176.73 121.96 176.74 C 119.46 176.41 117.78 179.72 119.32 181.65 C 123.12 187.11 127.36 192.26 131.24 197.68 C 132.75 199.59 134.98 202.78 137.59 200.48 C 140.99 197.86 136.52 194.30 134.98 191.91 C 134.16 192.51 133.34 193.12 132.52 193.73 C 130.66 191.42 128.88 189.05 127.25 186.58 C 131.55 183.78 135.40 180.36 139.72 177.60 C 144.71 184.53 149.96 191.27 155.10 198.11 C 153.44 199.47 151.76 200.80 150.05 202.10 C 149.14 201.75 148.23 201.40 147.33 201.06 C 146.00 207.03 140.60 211.06 135.00 212.72 C 129.62 213.98 125.17 209.63 121.78 206.08 C 116.90 200.17 111.79 194.21 108.83 187.05 C 107.15 182.88 106.81 177.61 109.80 173.93 Z" />
<path fill="#565656" opacity="1.00" d=" M 318.00 174.98 C 321.17 172.33 324.45 169.82 327.85 167.48 C 331.85 172.73 335.87 177.96 339.76 183.29 C 343.06 187.84 346.92 192.00 349.56 197.00 C 345.63 198.41 341.69 199.73 337.76 201.13 C 331.33 192.29 324.59 183.70 318.00 174.98 Z" />
<path fill="#565656" opacity="1.00" d=" M 4.13 174.97 C 4.55 174.55 5.37 173.70 5.79 173.27 C 7.79 175.82 9.75 178.41 11.70 181.00 C 9.13 183.04 6.54 185.07 4.00 187.16 C 4.10 183.10 3.75 179.02 4.13 174.97 Z" />
<path fill="#565656" opacity="1.00" d=" M 213.31 175.30 C 216.72 174.14 220.27 175.08 223.40 176.60 C 219.98 177.28 216.50 177.84 213.29 179.25 C 208.34 181.33 204.40 185.07 200.09 188.16 C 201.75 181.86 207.34 177.34 213.31 175.30 Z" />
<path fill="#565656" opacity="1.00" d=" M 410.71 183.54 C 413.15 181.88 415.54 180.14 417.95 178.43 C 418.01 183.44 418.04 188.44 417.93 193.44 C 415.30 190.32 412.72 187.11 410.71 183.54 Z" />
<path fill="#565656" opacity="1.00" d=" M 88.50 189.94 C 91.96 187.59 95.11 184.80 98.70 182.62 C 100.56 185.13 102.44 187.63 104.33 190.11 C 100.60 193.16 96.66 195.92 92.85 198.85 C 94.44 200.87 95.99 202.93 97.45 205.06 C 100.91 202.96 103.84 200.09 107.34 198.04 C 109.14 200.72 111.10 203.28 113.25 205.70 C 110.25 208.32 106.94 210.54 103.78 212.96 C 105.45 215.46 107.27 217.86 109.14 220.21 C 113.22 217.43 117.04 214.30 121.01 211.37 C 123.32 213.85 125.39 216.55 127.16 219.45 C 119.75 224.72 112.56 230.30 105.36 235.86 C 97.33 224.87 88.93 214.16 80.84 203.21 C 83.39 198.79 85.83 194.30 88.50 189.94 Z" />
<path fill="#565656" opacity="1.00" d=" M 293.61 194.59 C 296.82 188.31 303.84 183.54 311.03 183.91 C 315.73 184.04 318.79 188.04 321.64 191.24 C 318.48 193.91 315.20 196.44 311.77 198.75 C 310.17 197.19 308.77 194.05 306.03 195.09 C 303.97 195.30 303.43 198.09 304.47 199.59 C 306.71 203.18 309.59 206.34 311.80 209.97 C 307.87 211.76 303.71 212.95 299.63 214.35 C 295.22 209.01 290.95 201.65 293.61 194.59 Z" />
<path fill="#565656" opacity="1.00" d=" M 5.56 195.93 C 8.42 193.39 11.44 191.04 14.63 188.93 C 16.43 191.61 18.93 193.89 20.19 196.90 C 17.38 199.59 14.05 201.64 11.09 204.14 C 12.95 206.44 14.74 208.80 16.44 211.23 C 20.61 208.33 24.55 205.09 28.64 202.08 C 30.45 204.76 32.66 207.16 34.23 209.99 C 33.75 211.16 32.46 211.73 31.56 212.55 C 25.30 217.22 19.06 221.94 12.80 226.61 C 9.94 222.70 6.55 219.11 4.11 214.93 C 3.80 208.27 4.10 201.59 4.00 194.93 C 4.39 195.18 5.17 195.68 5.56 195.93 Z" />
<path fill="#565656" opacity="1.00" d=" M 175.33 204.23 C 179.77 199.19 185.76 195.85 191.00 191.72 C 191.50 192.19 192.48 193.13 192.98 193.60 L 193.11 193.73 C 189.02 196.89 184.43 199.28 180.15 202.16 C 178.39 203.31 176.65 204.55 174.61 205.15 L 175.33 204.23 Z" />
<path fill="#565656" opacity="1.00" d=" M 219.70 195.63 C 222.25 194.00 225.07 192.82 228.12 192.63 C 236.26 193.70 242.03 202.77 239.52 210.60 C 238.35 215.34 234.25 218.36 230.54 221.11 C 227.46 222.03 223.92 222.58 221.04 220.77 C 214.42 216.76 210.64 209.74 205.47 204.25 C 208.97 201.65 212.43 198.99 215.86 196.28 C 219.63 200.57 222.47 205.63 226.47 209.72 C 228.45 211.50 231.38 209.36 231.50 207.05 C 230.63 204.85 229.15 202.99 227.82 201.07 C 226.90 201.61 225.98 202.16 225.06 202.71 C 223.22 200.38 221.44 198.02 219.70 195.63 Z" />
<path fill="#565656" opacity="1.00" d=" M 388.19 199.42 C 392.30 198.04 396.18 195.91 399.30 192.87 C 405.50 191.93 411.24 195.35 414.24 200.67 C 410.89 203.03 407.69 205.59 404.35 207.96 C 403.26 206.57 402.16 205.18 401.09 203.79 C 399.67 204.07 397.94 203.93 397.05 205.32 C 395.89 207.17 397.27 209.16 398.35 210.66 C 402.23 215.75 406.09 220.85 409.93 225.97 C 410.83 227.34 412.29 228.09 413.72 228.79 C 414.70 227.86 416.14 227.24 416.70 225.94 C 416.50 223.11 414.20 221.06 412.50 219.00 C 411.76 219.65 411.02 220.29 410.29 220.93 C 408.61 218.61 406.86 216.34 405.06 214.11 C 409.27 210.83 413.36 207.34 417.96 204.59 C 418.03 215.67 418.01 226.75 417.97 237.83 C 414.38 239.84 409.82 241.18 406.07 238.79 C 401.03 235.65 397.46 230.73 393.91 226.08 C 390.14 220.97 386.07 215.55 385.30 209.05 C 384.77 205.55 386.98 202.53 388.19 199.42 Z" />
<path fill="#565656" opacity="1.00" d=" M 312.54 204.95 C 316.53 201.75 320.64 198.68 324.81 195.71 C 326.78 198.35 328.77 200.97 330.80 203.58 C 325.70 205.31 320.61 207.07 315.52 208.82 C 314.53 207.53 313.53 206.24 312.54 204.95 Z" />
<path fill="#565656" opacity="1.00" d=" M 263.11 216.41 C 269.65 210.74 276.91 205.92 283.83 200.70 C 285.68 203.07 287.71 205.35 289.15 208.02 C 286.10 211.81 281.25 213.83 277.93 217.45 C 279.15 218.51 280.37 219.57 281.60 220.62 L 281.90 220.88 C 277.50 221.77 273.39 223.63 269.15 225.02 C 267.09 222.30 263.65 219.72 263.11 216.41 Z" />
<path fill="#565656" opacity="1.00" d=" M 72.78 217.27 C 74.68 213.92 76.59 210.57 78.50 207.24 C 82.48 211.28 87.10 215.92 87.14 221.98 C 86.84 227.43 81.81 230.66 77.81 233.54 C 81.20 238.56 85.20 243.12 88.63 248.12 C 85.64 250.71 82.44 253.03 79.18 255.27 C 74.55 249.14 70.00 242.95 65.28 236.89 C 64.36 235.77 63.57 234.44 63.82 232.93 C 65.65 229.52 67.62 226.19 69.58 222.85 C 70.60 224.18 71.62 225.52 72.64 226.85 C 73.64 225.62 75.06 224.59 75.53 223.01 C 75.20 220.86 73.84 219.09 72.78 217.27 Z" />
<path fill="#565656" opacity="1.00" d=" M 181.53 222.77 C 187.86 217.90 194.19 213.03 200.51 208.14 C 202.28 210.39 204.05 212.63 205.81 214.89 C 202.88 217.47 199.40 219.38 196.64 222.15 C 197.90 224.72 199.92 226.83 201.49 229.21 C 205.83 226.59 209.78 223.40 213.69 220.19 C 215.67 222.79 217.67 225.39 219.71 227.95 C 212.78 233.93 205.23 239.15 197.98 244.74 C 192.45 237.46 186.77 230.27 181.53 222.77 Z" />
<path fill="#565656" opacity="1.00" d=" M 355.07 225.53 C 362.26 220.39 369.33 215.08 376.26 209.60 C 378.39 212.13 380.37 214.77 382.19 217.53 C 378.26 220.16 374.59 223.15 370.77 225.94 C 372.31 228.04 373.85 230.14 375.40 232.24 C 378.68 230.01 381.77 227.54 384.88 225.09 C 386.84 227.68 388.84 230.25 390.98 232.70 C 388.22 235.61 384.71 237.65 381.68 240.26 C 383.32 242.71 385.09 245.08 386.93 247.39 C 391.02 244.51 394.92 241.35 399.03 238.48 C 401.11 241.11 403.14 243.80 405.10 246.53 C 397.75 251.95 390.32 257.29 383.22 263.04 C 373.92 250.47 364.26 238.17 355.07 225.53 Z" />
<path fill="#565656" opacity="1.00" d=" M 310.59 226.91 C 317.33 224.58 324.00 222.03 330.79 219.85 L 332.24 219.68 C 331.05 224.97 326.35 228.59 321.54 230.50 C 317.60 231.99 312.92 230.37 310.59 226.91 Z" />
<path fill="#565656" opacity="1.00" d=" M 249.67 225.96 C 254.35 223.54 260.52 222.18 264.57 226.51 C 256.07 229.73 247.37 232.41 238.87 235.62 C 242.34 232.48 246.38 229.92 249.24 226.13 L 249.67 225.96 Z" />
<path fill="#565656" opacity="1.00" d=" M 153.03 238.97 C 162.00 235.79 170.59 231.34 178.08 225.46 C 179.37 227.51 180.23 229.98 179.53 232.41 C 178.38 237.16 173.95 239.84 170.56 242.91 C 174.14 247.77 178.10 252.37 181.27 257.53 C 177.91 259.64 175.05 262.49 171.46 264.26 C 165.74 255.53 158.73 247.70 153.03 238.97 Z" />
<path fill="#565656" opacity="1.00" d=" M 294.72 238.36 C 298.40 235.36 302.05 232.28 306.13 229.83 C 308.94 231.51 310.42 234.95 312.30 237.60 C 304.85 242.85 297.80 248.63 290.33 253.86 C 288.71 251.36 286.82 248.89 286.22 245.90 C 285.70 242.65 285.00 239.44 284.22 236.26 C 286.35 235.48 288.49 234.71 290.63 233.96 C 291.97 235.44 293.33 236.91 294.72 238.36 Z" />
<path fill="#565656" opacity="1.00" d=" M 23.47 239.09 C 26.62 236.53 29.90 234.15 33.14 231.71 C 35.63 234.70 37.62 238.13 40.58 240.73 C 38.27 244.73 35.92 248.70 33.64 252.72 C 30.25 248.18 26.67 243.77 23.47 239.09 Z" />
<path fill="#565656" opacity="1.00" d=" M 344.32 234.24 C 348.18 231.96 353.52 231.89 356.87 235.15 C 360.87 238.75 364.66 243.48 365.02 249.05 C 364.69 254.51 359.62 257.78 355.73 260.86 C 359.14 265.79 363.00 270.39 366.51 275.26 C 363.52 277.82 360.40 280.25 357.09 282.40 C 347.64 270.11 338.35 257.70 329.02 245.32 C 334.12 241.64 338.86 237.40 344.32 234.24 M 343.60 244.79 C 345.90 247.85 348.24 250.88 350.40 254.04 C 351.76 252.69 353.76 251.31 353.20 249.08 C 352.43 246.71 350.71 244.71 348.78 243.20 C 346.86 242.38 345.23 244.06 343.60 244.79 Z" />
<path fill="#565656" opacity="1.00" d=" M 115.89 248.16 C 119.26 245.74 122.47 243.12 125.91 240.79 C 135.02 253.39 144.87 265.45 153.84 278.16 C 150.47 280.45 147.29 282.99 143.97 285.35 C 134.60 272.96 125.33 260.49 115.89 248.16 Z" />
<path fill="#565656" opacity="1.00" d=" M 257.43 245.35 C 262.39 243.49 267.35 241.46 272.60 240.55 L 272.13 241.71 C 270.59 246.08 266.84 248.98 263.25 251.62 C 264.20 253.23 265.14 254.85 266.07 256.47 C 264.05 255.98 261.85 255.33 260.60 253.53 C 259.34 250.88 258.58 248.04 257.43 245.35 Z" />
<path fill="#565656" opacity="1.00" d=" M 4.15 252.25 C 7.77 250.14 11.63 247.78 15.98 248.01 C 20.70 248.33 24.44 251.88 26.86 255.68 C 23.88 258.37 20.45 260.49 17.42 263.12 C 15.99 261.69 14.76 259.93 12.94 258.98 C 10.91 258.90 8.29 261.18 9.53 263.29 C 12.36 268.32 16.68 272.34 19.49 277.40 C 18.61 280.28 18.94 283.69 21.19 285.86 C 24.29 289.35 30.52 289.36 33.35 285.54 C 36.01 281.80 38.01 277.65 40.37 273.72 C 42.26 275.95 44.04 278.27 45.73 280.66 C 44.11 281.85 42.50 283.04 40.89 284.24 C 40.18 284.15 38.75 283.96 38.03 283.86 C 36.40 288.92 32.17 292.59 27.37 294.57 C 23.94 295.89 19.87 295.18 17.08 292.81 C 12.34 289.16 8.84 284.21 5.24 279.51 C 3.59 277.74 4.04 275.22 3.97 273.03 C 4.10 266.10 3.82 259.17 4.15 252.25 Z" />
<path fill="#565656" opacity="1.00" d=" M 44.34 266.78 C 46.50 263.01 48.65 259.23 50.85 255.48 C 54.53 259.79 57.92 264.34 61.23 268.94 C 57.96 271.42 54.71 273.91 51.36 276.27 C 48.94 273.17 46.57 270.03 44.34 266.78 Z" />
<path fill="#565656" opacity="1.00" d=" M 99.05 260.01 C 102.82 257.74 107.68 256.01 111.96 257.89 C 115.27 259.17 117.48 262.06 119.71 264.68 C 116.39 267.23 113.18 269.95 109.58 272.12 C 108.13 270.40 106.27 266.58 103.56 268.68 C 101.21 269.52 101.73 272.53 103.09 274.06 C 107.11 279.40 111.11 284.75 115.15 290.08 C 116.11 291.42 117.52 292.31 118.88 293.23 C 119.98 292.38 121.10 291.55 122.22 290.72 C 121.97 287.86 119.94 285.75 118.22 283.65 C 117.29 284.12 116.37 284.60 115.45 285.08 C 113.88 282.74 112.14 280.51 110.27 278.41 C 114.33 275.11 118.64 272.14 122.76 268.92 C 127.88 275.89 133.15 282.74 138.32 289.68 C 136.12 291.68 133.65 293.45 130.53 293.32 C 127.76 300.06 119.92 306.49 112.38 303.50 C 106.02 300.14 102.05 293.83 97.72 288.33 C 94.38 283.45 90.70 278.15 90.71 271.99 C 90.74 266.71 94.92 262.69 99.05 260.01 Z" />
<path fill="#565656" opacity="1.00" d=" M 301.04 266.42 C 304.26 263.76 307.71 261.40 311.07 258.92 C 320.39 271.26 329.77 283.58 338.91 296.04 C 335.87 298.80 332.47 301.12 329.17 303.53 C 319.79 291.16 310.70 278.57 301.04 266.42 Z" />
<path fill="#565656" opacity="1.00" d=" M 17.87 269.10 C 21.09 266.99 23.73 263.70 27.67 262.92 C 25.69 266.66 23.59 270.33 21.41 273.96 C 20.21 272.35 19.03 270.73 17.87 269.10 Z" />
<path fill="#565656" opacity="1.00" d=" M 197.21 276.80 C 199.07 273.14 201.30 269.65 204.03 266.56 C 207.41 268.20 209.99 270.96 212.25 273.89 C 209.48 275.84 206.77 277.87 204.30 280.19 C 201.71 279.58 199.01 278.91 197.21 276.80 Z" />
<path fill="#565656" opacity="1.00" d=" M 393.72 275.33 C 397.08 272.92 400.33 270.35 403.67 267.89 C 408.11 273.92 412.64 279.89 417.19 285.83 C 418.23 286.95 417.94 288.54 418.03 289.93 C 417.96 295.72 418.06 301.51 417.93 307.30 C 409.81 296.68 401.80 285.98 393.72 275.33 Z" />
<path fill="#565656" opacity="1.00" d=" M 63.01 287.90 C 69.34 283.37 75.48 278.56 81.77 273.96 C 83.67 276.54 85.64 279.06 87.40 281.74 C 83.66 284.57 79.85 287.33 76.15 290.22 C 77.70 292.24 78.92 294.65 81.01 296.19 C 84.25 294.40 86.85 291.69 90.04 289.84 C 92.80 291.63 94.33 294.97 96.26 297.61 C 93.09 299.81 90.06 302.20 86.91 304.44 C 88.65 306.91 90.45 309.34 92.30 311.74 C 96.35 308.78 100.35 305.73 104.31 302.64 C 106.44 305.27 108.44 308.02 110.25 310.89 C 102.90 316.24 95.73 321.82 88.41 327.20 C 79.55 314.89 69.99 303.09 61.21 290.74 C 60.11 289.44 62.29 288.64 63.01 287.90 Z" />
<path fill="#565656" opacity="1.00" d=" M 277.54 284.60 C 281.72 278.27 290.15 273.15 297.75 276.28 C 300.86 277.47 302.73 280.42 304.87 282.80 C 301.59 285.23 298.52 287.97 295.03 290.10 C 293.37 288.80 292.36 286.36 290.07 286.10 C 288.29 286.71 286.09 288.59 287.42 290.63 C 291.30 296.61 296.02 302.02 300.10 307.89 C 301.31 309.78 303.92 312.37 306.06 310.05 C 308.86 307.59 305.25 304.08 303.74 301.87 C 302.47 302.13 300.83 303.73 299.94 302.02 C 298.32 300.24 297.03 298.20 295.65 296.24 C 299.71 293.16 303.87 290.21 307.88 287.05 C 312.95 293.77 318.02 300.51 323.10 307.22 C 322.86 309.22 320.04 310.12 318.67 311.56 C 317.77 311.30 316.87 311.05 315.97 310.81 C 313.95 316.60 308.91 321.10 302.91 322.37 C 298.50 323.21 294.67 320.15 291.72 317.27 C 287.27 312.62 283.42 307.40 279.97 301.98 C 276.78 296.97 274.03 290.14 277.54 284.60 Z" />
<path fill="#565656" opacity="1.00" d=" M 153.10 299.11 C 160.19 293.65 167.28 288.18 174.56 282.99 C 175.02 283.61 175.92 284.85 176.37 285.48 C 172.20 293.69 166.07 300.85 158.72 306.37 C 156.80 303.98 154.94 301.55 153.10 299.11 Z" />
<path fill="#565656" opacity="1.00" d=" M 369.58 294.60 C 372.81 289.07 378.67 284.98 385.10 284.31 C 390.31 283.96 394.81 287.66 397.20 292.03 C 394.24 294.68 390.81 296.74 387.81 299.36 C 386.34 297.73 384.75 296.23 383.04 294.87 C 381.56 295.96 379.21 296.76 379.84 299.08 C 381.25 302.44 383.96 305.04 386.02 308.01 C 389.09 311.66 391.53 315.82 394.79 319.32 C 396.58 321.15 399.56 319.01 400.04 316.96 C 399.28 314.59 397.55 312.72 396.11 310.76 C 395.17 311.24 394.23 311.71 393.30 312.20 C 391.61 309.92 389.91 307.65 388.19 305.40 C 392.37 302.37 396.45 299.22 400.52 296.06 C 405.71 303.02 410.96 309.93 416.16 316.87 C 413.81 318.58 411.50 321.39 408.28 320.08 C 406.68 325.70 401.62 329.65 396.21 331.30 C 392.49 332.44 388.73 330.32 386.08 327.85 C 380.92 322.98 376.56 317.30 372.70 311.36 C 369.70 306.45 366.96 300.26 369.58 294.60 Z" />
<path fill="#565656" opacity="1.00" d=" M 229.98 284.95 C 234.80 286.36 240.00 286.35 244.78 284.77 C 245.12 285.34 245.81 286.48 246.15 287.05 C 243.24 289.89 239.78 292.08 236.42 294.35 C 234.27 291.22 231.66 288.39 229.98 284.95 Z" />
<path fill="#565656" opacity="1.00" d=" M 212.89 294.63 C 216.53 293.21 219.93 291.13 222.73 288.38 C 225.83 291.54 228.28 295.24 230.94 298.77 C 229.26 300.03 227.57 301.28 225.88 302.53 C 224.98 302.30 224.08 302.07 223.18 301.85 C 221.28 307.72 216.04 312.25 209.99 313.34 C 205.83 313.99 202.29 311.17 199.50 308.47 C 195.64 304.51 192.19 300.16 189.12 295.56 C 189.95 294.28 190.70 292.96 191.46 291.65 C 195.78 293.83 200.39 295.52 205.26 295.82 C 206.84 297.89 208.29 300.14 210.37 301.77 C 211.58 302.24 212.86 301.44 213.74 300.66 C 215.70 298.91 213.42 296.53 212.89 294.63 Z" />
<path fill="#565656" opacity="1.00" d=" M 246.08 307.99 C 252.73 302.44 259.90 297.48 266.80 292.23 C 269.02 294.53 270.81 297.19 272.95 299.56 C 269.13 302.56 265.21 305.43 261.31 308.32 C 262.89 310.50 264.52 312.64 266.23 314.73 C 269.23 312.18 272.32 309.72 275.68 307.66 C 277.50 310.18 279.55 312.55 281.24 315.17 C 278.94 318.27 275.04 320.04 272.16 322.68 C 273.96 325.08 275.79 327.45 277.67 329.79 C 281.64 326.78 285.62 323.77 289.63 320.81 C 291.58 323.45 293.58 326.07 295.66 328.62 C 288.42 334.36 281.10 340.02 273.47 345.23 C 264.57 332.85 255.17 320.81 246.04 308.60 L 246.08 307.99 Z" />
<path fill="#565656" opacity="1.00" d=" M 4.01 299.35 C 6.61 297.42 9.22 295.49 11.97 293.76 C 13.84 296.43 15.79 299.03 17.83 301.57 C 13.26 305.16 8.50 308.50 4.00 312.17 C 4.00 307.90 3.99 303.62 4.01 299.35 Z" />
<path fill="#565656" opacity="1.00" d=" M 47.74 299.71 C 51.02 297.35 55.41 296.07 59.31 297.58 C 64.08 299.99 67.52 304.50 69.57 309.35 C 70.99 312.52 70.34 316.38 68.08 318.99 C 65.98 321.43 63.32 323.28 60.89 325.37 C 64.97 329.80 68.11 334.97 72.06 339.50 C 68.94 342.11 65.59 344.43 62.37 346.91 C 53.30 334.31 43.70 322.11 34.45 309.63 C 38.79 306.21 43.21 302.88 47.74 299.71 M 48.95 309.13 C 51.27 312.14 53.27 315.42 55.97 318.12 C 57.28 317.24 58.13 315.87 59.08 314.63 C 58.04 311.36 55.97 308.56 52.99 306.82 C 51.65 307.59 50.30 308.36 48.95 309.13 Z" />
<path fill="#565656" opacity="1.00" d=" M 338.54 317.13 C 345.41 311.57 352.57 306.35 359.68 301.09 C 361.53 303.72 363.50 306.28 365.29 308.96 C 361.48 311.73 357.74 314.60 353.92 317.36 C 355.41 319.52 357.04 321.58 358.77 323.57 C 361.89 321.37 364.81 318.86 368.06 316.85 C 370.45 319.15 372.18 322.02 374.19 324.64 C 371.06 327.09 367.72 329.28 364.67 331.83 C 366.54 334.19 368.38 336.59 370.18 339.01 C 374.06 335.83 378.18 332.97 382.12 329.86 C 384.20 332.48 386.23 335.14 388.14 337.89 C 380.89 343.40 373.67 348.97 366.30 354.33 C 357.09 341.90 347.40 329.78 338.54 317.13 Z" />
<path fill="#565656" opacity="1.00" d=" M 168.34 319.47 C 175.01 314.64 180.50 308.45 184.93 301.54 C 186.39 303.15 187.75 304.86 189.01 306.64 C 185.77 308.90 182.50 311.13 179.54 313.76 C 181.34 316.11 183.16 318.45 185.02 320.76 C 189.02 317.80 192.89 314.67 196.95 311.79 C 198.97 314.44 201.00 317.10 203.06 319.72 C 195.89 325.29 188.40 330.45 181.39 336.22 C 176.68 330.92 172.92 324.87 168.34 319.47 Z" />
<path fill="#565656" opacity="1.00" d=" M 132.96 314.18 C 137.31 311.05 141.42 307.00 146.89 306.02 C 150.09 305.43 152.92 307.26 155.71 308.50 C 147.17 314.49 136.77 316.18 127.11 319.50 C 128.36 317.06 130.90 315.81 132.96 314.18 Z" />
<path fill="#565656" opacity="1.00" d=" M 237.64 315.48 C 242.28 313.75 247.14 316.40 250.05 319.97 C 252.82 323.37 255.82 327.29 255.52 331.94 C 254.85 337.27 249.94 340.36 246.10 343.45 C 249.60 347.47 252.58 351.92 256.06 355.97 C 251.05 356.03 246.04 355.98 241.03 356.01 C 233.88 346.50 226.41 337.22 219.66 327.42 C 225.80 323.66 230.81 318.02 237.64 315.48 M 238.17 325.40 C 236.72 325.79 235.40 326.53 234.04 327.15 C 236.54 330.25 238.63 333.69 241.53 336.47 C 242.34 334.86 244.68 333.30 243.74 331.28 C 242.60 328.85 241.02 325.99 238.17 325.40 Z" />
<path fill="#565656" opacity="1.00" d=" M 16.37 323.20 C 24.81 334.01 32.81 345.15 41.20 356.00 C 36.45 355.95 31.71 356.08 26.97 355.98 C 25.54 356.30 24.87 354.80 24.07 353.96 C 18.29 346.17 12.51 338.39 6.56 330.73 C 9.64 327.96 13.13 325.75 16.37 323.20 Z" />
<path fill="#565656" opacity="1.00" d=" M 138.06 333.06 C 146.78 330.95 155.33 327.86 162.98 323.10 C 161.69 328.01 157.67 331.37 153.74 334.22 C 157.05 339.02 160.87 343.45 164.18 348.26 C 162.19 351.51 158.01 353.23 155.16 355.87 C 149.37 348.34 143.54 340.82 138.06 333.06 Z" />
<path fill="#565656" opacity="1.00" d=" M 316.51 333.47 C 321.46 330.09 325.90 325.42 331.95 324.09 C 336.85 323.19 341.05 326.77 343.76 330.45 C 346.26 333.74 348.81 337.67 347.97 342.02 C 346.73 346.65 342.63 349.61 338.90 352.23 C 339.73 353.48 340.57 354.74 341.41 356.00 C 336.52 356.01 331.64 355.97 326.77 356.04 C 322.15 349.66 316.97 343.65 312.68 337.05 C 313.34 335.38 315.22 334.61 316.51 333.47 M 326.71 336.11 C 328.89 339.24 331.29 342.20 333.47 345.33 C 334.85 344.35 336.61 343.15 336.56 341.27 C 335.91 338.45 334.01 335.94 331.59 334.40 C 329.85 334.57 328.30 335.49 326.71 336.11 Z" />
<path fill="#565656" opacity="1.00" d=" M 99.14 339.62 C 101.06 338.21 102.94 336.76 104.76 335.22 C 104.60 337.70 104.78 340.48 106.70 342.32 C 109.23 345.47 114.05 345.84 117.37 343.75 C 120.82 347.66 123.77 351.97 127.07 355.99 C 121.82 356.00 116.57 356.02 111.33 355.97 C 107.41 350.41 103.19 345.08 99.14 339.62 Z" />
<path fill="#565656" opacity="1.00" d=" M 411.14 341.24 C 413.40 339.40 415.69 337.60 418.00 335.82 C 417.98 340.58 418.06 345.35 417.89 350.11 C 415.74 347.07 413.55 344.07 411.14 341.24 Z" />
<path fill="#565656" opacity="1.00" d=" M 4.04 340.70 C 6.39 342.64 8.60 344.78 10.12 347.45 C 8.03 348.84 6.01 350.34 4.03 351.89 C 3.99 348.16 3.97 344.43 4.04 340.70 Z" />
<path fill="#565656" opacity="1.00" d=" M 191.80 348.51 C 195.13 346.31 198.23 343.79 201.38 341.35 C 205.43 345.98 208.91 351.07 212.63 355.97 C 207.51 356.02 202.40 355.99 197.29 356.00 C 195.32 353.61 193.48 351.11 191.80 348.51 Z" />
<path fill="#565656" opacity="1.00" d=" M 76.71 355.94 C 81.04 351.84 86.62 347.75 92.94 348.84 C 97.18 349.28 100.19 352.63 102.39 355.98 C 93.83 355.99 85.27 356.06 76.71 355.94 Z" />
<path fill="#565656" opacity="1.00" d=" M 286.78 355.95 C 289.13 354.15 291.39 352.19 294.00 350.77 C 296.07 351.78 296.97 354.23 298.33 355.99 C 294.48 356.01 290.63 356.02 286.78 355.95 Z" />
<path fill="#565656" opacity="1.00" d=" M 7.49 355.93 C 9.33 354.28 11.29 352.78 13.34 351.40 C 14.47 352.91 15.59 354.43 16.69 355.97 C 13.62 356.02 10.56 356.02 7.49 355.93 Z" />
<path fill="#565656" opacity="1.00" d=" M 392.21 355.09 C 395.20 353.52 392.42 358.38 392.21 355.09 Z" />
</g>
<g id="Ffefefeff">
</g>
</svg>
